<?xml version="1.0" encoding="UTF-8"?>
<!DOCTYPE svg PUBLIC "-//W3C//DTD SVG 1.1//EN" "http://www.w3.org/Graphics/SVG/1.1/DTD/svg11.dtd">
<!-- Creator: CorelDRAW 2019 (64-Bit) -->
<svg xmlns="http://www.w3.org/2000/svg" xml:space="preserve" width="7.5861mm" height="80.9289mm" version="1.1" style="shape-rendering:geometricPrecision; text-rendering:geometricPrecision; image-rendering:optimizeQuality; fill-rule:evenodd; clip-rule:evenodd"
viewBox="0 0 8.16 87.03"
 xmlns:xlink="http://www.w3.org/1999/xlink"
 xmlns:xodm="http://www.corel.com/coreldraw/odm/2003">
 <defs>
  <style type="text/css">
   <![CDATA[
    .fil1 {fill:white;fill-rule:nonzero}
    .fil0 {fill:white;fill-rule:nonzero}
   ]]>
  </style>
 </defs>
 <g id="Layer_x0020_1">
  <metadata id="CorelCorpID_0Corel-Layer"/>
  <g id="_2723177097296">
   <path class="fil0" d="M6.5 87.03l0 -0.59 -2.89 0 0 -2.28c-0.01,-0.29 0.03,-0.52 0.14,-0.68 0.1,-0.16 0.25,-0.28 0.44,-0.36 0.18,-0.08 0.38,-0.14 0.61,-0.18 0.23,-0.02 0.46,-0.04 0.7,-0.04 0.14,-0 0.31,-0.02 0.5,-0.04 0.2,-0.02 0.37,-0.06 0.51,-0.12l0 -0.66c-0.09,0.06 -0.2,0.1 -0.35,0.14 -0.14,0.04 -0.29,0.07 -0.44,0.09 -0.34,0.03 -0.63,0.05 -0.88,0.06 -0.39,0.01 -0.72,0.1 -0.98,0.26 -0.26,0.16 -0.42,0.44 -0.48,0.84l-0.02 0c-0.09,-0.4 -0.28,-0.71 -0.58,-0.92 -0.3,-0.2 -0.65,-0.3 -1.07,-0.3 -0.59,0.01 -1.02,0.19 -1.29,0.56 -0.27,0.37 -0.4,0.82 -0.4,1.35l0 2.88 6.5 0zm-5.97 -0.59l0 -2.25c0.02,-0.91 0.45,-1.36 1.29,-1.36 0.4,0.01 0.71,0.14 0.93,0.4 0.22,0.26 0.34,0.58 0.34,0.96l0 2.25 -2.56 0zm3.78 -9.2c-0.69,-0.04 -1.29,0.11 -1.81,0.43 -0.53,0.32 -0.8,0.84 -0.81,1.57 0.01,0.72 0.27,1.24 0.77,1.56 0.49,0.33 1.06,0.49 1.71,0.49 0.68,0 1.26,-0.16 1.73,-0.49 0.49,-0.32 0.73,-0.85 0.75,-1.56 -0.02,-1.12 -0.58,-1.78 -1.68,-1.99l0 0.55c0.36,0.08 0.65,0.24 0.86,0.47 0.22,0.24 0.34,0.56 0.34,0.96 -0.01,0.52 -0.22,0.9 -0.62,1.14 -0.38,0.24 -0.79,0.36 -1.23,0.36l0 -3.51zm-0.48 3.51c-0.44,-0.05 -0.83,-0.2 -1.15,-0.45 -0.33,-0.25 -0.5,-0.6 -0.51,-1.05 0.01,-0.45 0.17,-0.81 0.51,-1.06 0.32,-0.25 0.7,-0.38 1.15,-0.39l0 2.95zm-0.53 -8.17c-0.54,0.06 -0.94,0.26 -1.22,0.6 -0.26,0.34 -0.39,0.75 -0.39,1.24 0.01,0.7 0.25,1.23 0.72,1.59 0.47,0.37 1.06,0.56 1.75,0.56 0.69,0 1.27,-0.19 1.73,-0.56 0.49,-0.36 0.73,-0.9 0.75,-1.59 -0.02,-1.06 -0.63,-1.69 -1.82,-1.88l0 0.56c0.39,0.04 0.71,0.18 0.95,0.42 0.25,0.25 0.37,0.55 0.38,0.9 -0.01,0.53 -0.22,0.93 -0.63,1.19 -0.39,0.27 -0.85,0.41 -1.37,0.41 -0.52,0 -0.98,-0.14 -1.38,-0.41 -0.4,-0.26 -0.6,-0.66 -0.62,-1.19 0.01,-0.72 0.39,-1.15 1.13,-1.29l0 -0.56zm-1.61 -2.89c0.01,0.7 0.25,1.23 0.72,1.6 0.47,0.37 1.06,0.56 1.75,0.56 0.69,0 1.27,-0.19 1.73,-0.56 0.49,-0.37 0.73,-0.9 0.75,-1.6 -0.01,-0.7 -0.26,-1.24 -0.75,-1.61 -0.47,-0.37 -1.04,-0.55 -1.73,-0.55 -0.7,0 -1.28,0.18 -1.75,0.55 -0.47,0.37 -0.71,0.91 -0.72,1.61zm0.48 0c0.01,-0.54 0.22,-0.94 0.62,-1.21 0.4,-0.27 0.86,-0.4 1.38,-0.4 0.52,0 0.98,0.13 1.37,0.4 0.41,0.27 0.61,0.67 0.63,1.21 -0.01,0.53 -0.22,0.93 -0.63,1.2 -0.39,0.27 -0.85,0.41 -1.37,0.41 -0.52,0 -0.98,-0.14 -1.38,-0.41 -0.4,-0.27 -0.6,-0.66 -0.62,-1.2zm4.34 -3.05l0 -0.56 -2.61 0c-0.5,-0.01 -0.91,-0.12 -1.23,-0.34 -0.32,-0.22 -0.49,-0.58 -0.49,-1.07 0.01,-0.37 0.12,-0.63 0.34,-0.78 0.22,-0.15 0.5,-0.22 0.82,-0.21l3.17 0 0 -0.55 -2.65 0c-0.45,0 -0.85,-0.09 -1.18,-0.28 -0.33,-0.18 -0.5,-0.52 -0.51,-1.01 0,-0.41 0.1,-0.7 0.3,-0.87 0.2,-0.16 0.49,-0.25 0.88,-0.25l3.15 0 0 -0.56 -3.18 0c-1.09,0.01 -1.64,0.53 -1.64,1.56 0,0.32 0.07,0.61 0.22,0.87 0.16,0.27 0.39,0.48 0.7,0.63l0 0c-0.16,0.03 -0.29,0.1 -0.41,0.18 -0.12,0.09 -0.22,0.2 -0.29,0.32 -0.15,0.24 -0.22,0.53 -0.22,0.85 0.01,0.73 0.31,1.25 0.9,1.54l0 0.03 -0.79 0 0 0.51 4.71 0zm-2.2 -11.5c-0.69,-0.04 -1.29,0.11 -1.81,0.43 -0.53,0.32 -0.8,0.84 -0.81,1.57 0.01,0.72 0.27,1.24 0.77,1.56 0.49,0.33 1.06,0.49 1.71,0.49 0.68,0 1.26,-0.16 1.73,-0.49 0.49,-0.32 0.73,-0.85 0.75,-1.56 -0.02,-1.12 -0.58,-1.78 -1.68,-1.99l0 0.55c0.36,0.08 0.65,0.24 0.86,0.47 0.22,0.24 0.34,0.56 0.34,0.96 -0.01,0.52 -0.22,0.9 -0.62,1.14 -0.38,0.24 -0.79,0.36 -1.23,0.36l0 -3.51zm-0.48 3.51c-0.44,-0.05 -0.83,-0.2 -1.15,-0.45 -0.33,-0.25 -0.5,-0.6 -0.51,-1.05 0.01,-0.45 0.17,-0.81 0.51,-1.06 0.32,-0.25 0.7,-0.38 1.15,-0.39l0 2.95zm2.68 -4.4l0 -0.55 -2.73 0c-0.47,-0.01 -0.86,-0.14 -1.15,-0.4 -0.3,-0.24 -0.45,-0.59 -0.46,-1.04 0.01,-0.44 0.14,-0.75 0.4,-0.92 0.26,-0.16 0.6,-0.24 1.02,-0.24l2.92 0 0 -0.55 -3.01 0c-0.57,-0.01 -1.01,0.11 -1.32,0.35 -0.31,0.24 -0.47,0.68 -0.48,1.31 0,0.32 0.08,0.62 0.25,0.88 0.17,0.27 0.4,0.46 0.68,0.57l0 0.02 -0.81 0 0 0.55 4.71 0zm-2.34 -5.25c-0.51,0 -0.97,-0.12 -1.37,-0.36 -0.41,-0.24 -0.61,-0.62 -0.63,-1.14 0.01,-0.59 0.22,-1.01 0.63,-1.26 0.4,-0.24 0.86,-0.35 1.37,-0.35 0.5,-0.01 0.95,0.11 1.35,0.35 0.42,0.25 0.63,0.67 0.64,1.26 -0.01,0.52 -0.23,0.9 -0.64,1.14 -0.4,0.24 -0.85,0.36 -1.35,0.36zm-4.16 -3.65l0 0.55 2.71 0 0 0.02c-0.34,0.12 -0.6,0.33 -0.77,0.62 -0.17,0.29 -0.25,0.61 -0.25,0.96 0.01,0.69 0.25,1.2 0.73,1.54 0.48,0.34 1.06,0.51 1.75,0.51 0.68,0 1.26,-0.17 1.73,-0.51 0.49,-0.33 0.73,-0.85 0.75,-1.53 -0.01,-0.35 -0.1,-0.68 -0.29,-0.98 -0.19,-0.31 -0.43,-0.52 -0.74,-0.65l0 -0.02 0.89 0 0 -0.51 -6.5 0zm4.69 -4.13c0.45,0.01 0.81,0.16 1.07,0.47 0.27,0.31 0.4,0.68 0.4,1.12 0,0.27 -0.08,0.5 -0.25,0.7 -0.16,0.2 -0.39,0.31 -0.67,0.32 -0.23,0 -0.41,-0.07 -0.54,-0.21 -0.13,-0.13 -0.22,-0.3 -0.28,-0.5 -0.07,-0.21 -0.13,-0.44 -0.15,-0.69 -0.03,-0.24 -0.07,-0.48 -0.1,-0.72 -0.02,-0.08 -0.05,-0.17 -0.08,-0.26 -0.03,-0.09 -0.07,-0.16 -0.13,-0.21l0 -0.02 0.74 0zm-1.43 2.4c-0.38,-0.02 -0.66,-0.14 -0.84,-0.36 -0.17,-0.21 -0.25,-0.5 -0.25,-0.85 0,-0.34 0.06,-0.62 0.18,-0.85 0.14,-0.22 0.4,-0.34 0.78,-0.34 0.25,0 0.41,0.06 0.48,0.18 0.08,0.12 0.13,0.3 0.15,0.54 0.03,0.3 0.06,0.6 0.1,0.88 0.04,0.29 0.11,0.55 0.21,0.78 0.09,0.24 0.23,0.42 0.42,0.56 0.19,0.15 0.45,0.22 0.78,0.22 0.47,-0 0.81,-0.16 1.03,-0.46 0.22,-0.29 0.34,-0.64 0.34,-1.07 -0.01,-0.43 -0.09,-0.76 -0.26,-1.01 -0.16,-0.25 -0.39,-0.46 -0.69,-0.65l0 -0.02c0.25,0.01 0.44,-0.04 0.59,-0.13 0.15,-0.08 0.23,-0.25 0.23,-0.53 0,-0.14 -0.01,-0.26 -0.03,-0.36l-0.48 0c0.02,0.05 0.04,0.1 0.04,0.18 0,0.22 -0.11,0.32 -0.34,0.32l-2.49 0c-0.32,0 -0.58,0.05 -0.78,0.14 -0.2,0.1 -0.35,0.23 -0.45,0.39 -0.11,0.16 -0.19,0.34 -0.23,0.54 -0.03,0.2 -0.05,0.4 -0.05,0.61 0,0.52 0.12,0.95 0.37,1.29 0.25,0.34 0.65,0.52 1.2,0.55l0 -0.56zm0.9 -4.57c-0.51,0 -0.97,-0.12 -1.37,-0.36 -0.41,-0.24 -0.61,-0.62 -0.63,-1.14 0.01,-0.59 0.22,-1.01 0.63,-1.26 0.4,-0.24 0.86,-0.35 1.37,-0.35 0.5,-0.01 0.95,0.11 1.35,0.35 0.42,0.25 0.63,0.67 0.64,1.26 -0.01,0.52 -0.23,0.9 -0.64,1.14 -0.4,0.24 -0.85,0.36 -1.35,0.36zm-4.16 -3.65l0 0.55 2.71 0 0 0.02c-0.34,0.12 -0.6,0.33 -0.77,0.62 -0.17,0.29 -0.25,0.61 -0.25,0.96 0.01,0.69 0.25,1.2 0.73,1.54 0.48,0.34 1.06,0.51 1.75,0.51 0.68,0 1.26,-0.17 1.73,-0.51 0.49,-0.33 0.73,-0.85 0.75,-1.53 -0.01,-0.35 -0.1,-0.68 -0.29,-0.98 -0.19,-0.31 -0.43,-0.52 -0.74,-0.65l0 -0.02 0.89 0 0 -0.51 -6.5 0zm1.68 -3.14c0.01,0.7 0.25,1.23 0.72,1.6 0.47,0.37 1.06,0.56 1.75,0.56 0.69,0 1.27,-0.19 1.73,-0.56 0.49,-0.37 0.73,-0.9 0.75,-1.6 -0.01,-0.7 -0.26,-1.24 -0.75,-1.61 -0.47,-0.37 -1.04,-0.55 -1.73,-0.55 -0.7,0 -1.28,0.18 -1.75,0.55 -0.47,0.37 -0.71,0.91 -0.72,1.61zm0.48 0c0.01,-0.54 0.22,-0.94 0.62,-1.21 0.4,-0.27 0.86,-0.4 1.38,-0.4 0.52,0 0.98,0.13 1.37,0.4 0.41,0.27 0.61,0.67 0.63,1.21 -0.01,0.53 -0.22,0.93 -0.63,1.2 -0.39,0.27 -0.85,0.41 -1.37,0.41 -0.52,0 -0.98,-0.14 -1.38,-0.41 -0.4,-0.27 -0.6,-0.66 -0.62,-1.2z"/>
   <path class="fil1" d="M8.16 26.62l0 -1.29 -2.24 0 0 -0.02c0.46,-0.31 0.71,-0.85 0.71,-1.41 0,-1.37 -1.17,-2.07 -2.43,-2.07 -1.34,0 -2.53,0.66 -2.53,2.14 0,0.58 0.23,1.09 0.73,1.4l0 0.02 -0.6 0 0 1.23 6.36 0zm-2.5 -2.38c0,0.84 -0.73,1.13 -1.49,1.13 -0.76,0 -1.52,-0.27 -1.52,-1.12 0,-0.83 0.77,-1.13 1.52,-1.13 0.76,0 1.49,0.27 1.49,1.12zm-0.97 -6.12c0.28,0 1.08,0.04 1.08,1.05 0,0.42 -0.12,0.79 -0.6,0.79 -0.47,0 -0.61,-0.36 -0.69,-0.76 -0.07,-0.4 -0.08,-0.86 -0.27,-1.07l0.48 0zm-1.44 1.69c-0.51,-0.05 -0.71,-0.36 -0.71,-0.86 0,-0.46 0.08,-0.84 0.64,-0.84 0.53,0 0.5,0.74 0.62,1.53 0.11,0.8 0.36,1.6 1.43,1.6 0.97,0 1.41,-0.71 1.41,-1.6 0,-0.57 -0.15,-1.17 -0.58,-1.58 0.15,-0.01 0.31,-0.05 0.46,-0.09l0 -1.31c-0.19,0.12 -0.62,0.16 -1.05,0.16l-2.45 0c-1.13,0 -1.34,1.13 -1.34,2.07 0,1.06 0.36,2.14 1.58,2.21l0 -1.29zm3.26 -3.99l0 -1.29 -2.12 0c-0.83,0 -1.51,-0.33 -1.51,-1.27 0,-0.15 0.02,-0.35 0.05,-0.46l-1.2 0c-0.03,0.08 -0.05,0.19 -0.05,0.28 0,0.63 0.41,1.27 1,1.5l0 0.02 -0.87 0 0 1.23 4.71 0zm-1.82 -6.47c0.28,0 1.08,0.04 1.08,1.05 0,0.42 -0.12,0.79 -0.6,0.79 -0.47,0 -0.61,-0.36 -0.69,-0.76 -0.07,-0.4 -0.08,-0.86 -0.27,-1.07l0.48 0zm-1.44 1.69c-0.51,-0.05 -0.71,-0.36 -0.71,-0.86 0,-0.46 0.08,-0.84 0.64,-0.84 0.53,0 0.5,0.74 0.62,1.53 0.11,0.8 0.36,1.6 1.43,1.6 0.97,0 1.41,-0.71 1.41,-1.6 0,-0.57 -0.15,-1.17 -0.58,-1.58 0.15,-0.01 0.31,-0.05 0.46,-0.09l0 -1.31c-0.19,0.12 -0.62,0.16 -1.05,0.16l-2.45 0c-1.13,0 -1.34,1.13 -1.34,2.07 0,1.06 0.36,2.14 1.58,2.21l0 -1.29zm-2.86 -8.16l0 1.29 1.41 0 0 0.78 0.87 0 0 -0.78 2.78 0c0.94,0 1.12,-0.69 1.12,-1.48 0,-0.25 -0.01,-0.54 -0.05,-0.76l-1.01 0c0.03,0.14 0.04,0.26 0.04,0.4 0,0.44 -0.11,0.55 -0.55,0.55l-2.33 0 0 -0.95 -0.87 0 0 0.95 -1.41 0zm6.12 -1.6l0 -1.29 -4.71 0 0 1.29 4.71 0zm-6.5 -1.29l0 1.29 1.07 0 0 -1.29 -1.07 0z"/>
  </g>
 </g>
</svg>
