<?xml version="1.0" encoding="UTF-8"?>
<!DOCTYPE svg PUBLIC "-//W3C//DTD SVG 1.1//EN" "http://www.w3.org/Graphics/SVG/1.1/DTD/svg11.dtd">
<!-- Creator: CorelDRAW 2019 (64-Bit) -->
<svg xmlns="http://www.w3.org/2000/svg" xml:space="preserve" width="9.9625mm" height="122.453mm" version="1.1" style="shape-rendering:geometricPrecision; text-rendering:geometricPrecision; image-rendering:optimizeQuality; fill-rule:evenodd; clip-rule:evenodd"
viewBox="0 0 14.22 174.84"
 xmlns:xlink="http://www.w3.org/1999/xlink"
 xmlns:xodm="http://www.corel.com/coreldraw/odm/2003">
 <defs>
  <style type="text/css">
   <![CDATA[
    .fil0 {fill:white;fill-rule:nonzero}
   ]]>
  </style>
 </defs>
 <g id="Layer_x0020_1">
  <metadata id="CorelCorpID_0Corel-Layer"/>
  <path class="fil0" d="M11.22 174.84l0 -1.02 -4.81 0 0 -3.8c-0.02,-2.11 -1.09,-3.18 -3.2,-3.23 -2.11,0.05 -3.18,1.12 -3.21,3.22l0 4.82 11.22 0zm-10.31 -1.02l0 -3.58c0,-0.73 0.19,-1.31 0.56,-1.75 0.38,-0.44 0.96,-0.67 1.74,-0.68 0.76,0.02 1.33,0.24 1.71,0.68 0.39,0.44 0.58,1.02 0.58,1.75l0 3.58 -4.59 0zm10.31 -8.69l0 -0.95 -4.31 0c-0.87,-0.01 -1.58,-0.28 -2.14,-0.82 -0.54,-0.52 -0.8,-1.22 -0.77,-2.11l-0.99 0c-0.01,1.45 0.65,2.44 1.98,2.97l0 0.03 -1.9 0 0 0.88 8.13 0zm-8.31 -7.98c0.02,1.21 0.43,2.13 1.25,2.76 0.81,0.64 1.83,0.96 3.03,0.96 1.19,0 2.18,-0.32 2.99,-0.96 0.84,-0.63 1.27,-1.55 1.29,-2.76 -0.02,-1.21 -0.45,-2.14 -1.29,-2.78 -0.8,-0.63 -1.8,-0.95 -2.99,-0.95 -1.2,0 -2.21,0.31 -3.03,0.95 -0.81,0.64 -1.23,1.57 -1.25,2.78zm0.83 0c0.02,-0.93 0.37,-1.62 1.06,-2.08 0.69,-0.46 1.49,-0.69 2.38,-0.69 0.9,0 1.68,0.23 2.36,0.69 0.7,0.46 1.06,1.15 1.08,2.08 -0.02,0.92 -0.38,1.61 -1.08,2.06 -0.68,0.47 -1.46,0.7 -2.36,0.7 -0.9,0 -1.69,-0.24 -2.38,-0.7 -0.69,-0.46 -1.04,-1.15 -1.06,-2.06zm3.45 -11.72c0.87,0 1.65,0.2 2.33,0.59 0.72,0.41 1.09,1.07 1.11,1.98 -0.02,1.01 -0.39,1.72 -1.11,2.13 -0.34,0.21 -0.71,0.37 -1.12,0.48 -0.39,0.1 -0.8,0.15 -1.22,0.15 -0.95,0.01 -1.76,-0.19 -2.43,-0.6 -0.32,-0.21 -0.57,-0.5 -0.75,-0.86 -0.18,-0.35 -0.27,-0.78 -0.27,-1.3 0.02,-0.91 0.38,-1.57 1.08,-1.98 0.69,-0.4 1.48,-0.59 2.37,-0.59zm7.04 6.29l0 -0.95 -4.54 0 0 -0.03c0.57,-0.23 1.01,-0.6 1.31,-1.09 0.31,-0.49 0.46,-1.03 0.46,-1.63 -0.02,-1.19 -0.45,-2.09 -1.29,-2.67 -0.81,-0.57 -1.81,-0.85 -2.99,-0.85 -1.18,0 -2.19,0.28 -3.01,0.85 -0.82,0.59 -1.24,1.48 -1.26,2.67 0,0.64 0.15,1.21 0.44,1.71 0.31,0.5 0.74,0.86 1.29,1.09l0 0.03 -1.54 0 0 0.88 11.13 0zm-3 -9.03l0 -0.95 -8.13 0 0 0.95 8.13 0zm-9.64 0l0 -0.95 -1.58 0 0 0.95 1.58 0zm5.85 -9.49c-1.18,-0.06 -2.22,0.19 -3.12,0.75 -0.92,0.55 -1.38,1.45 -1.4,2.71 0.02,1.24 0.46,2.14 1.33,2.7 0.85,0.57 1.83,0.85 2.94,0.85 1.18,0 2.17,-0.28 2.99,-0.85 0.84,-0.56 1.27,-1.46 1.29,-2.7 -0.03,-1.93 -1,-3.07 -2.91,-3.43l0 0.96c0.62,0.14 1.12,0.41 1.49,0.81 0.39,0.41 0.58,0.96 0.58,1.66 -0.02,0.9 -0.38,1.56 -1.07,1.97 -0.65,0.42 -1.36,0.63 -2.13,0.63l0 -6.05zm-0.83 6.05c-0.76,-0.08 -1.43,-0.34 -1.99,-0.78 -0.57,-0.43 -0.86,-1.03 -0.87,-1.82 0.01,-0.78 0.3,-1.39 0.87,-1.83 0.55,-0.43 1.21,-0.65 1.99,-0.67l0 5.1zm0.58 -8.22c-0.89,0 -1.68,-0.2 -2.37,-0.61 -0.7,-0.41 -1.06,-1.06 -1.08,-1.97 0.02,-1.02 0.38,-1.74 1.08,-2.17 0.69,-0.41 1.48,-0.61 2.37,-0.6 0.87,-0.01 1.65,0.19 2.33,0.6 0.72,0.43 1.09,1.15 1.11,2.17 -0.02,0.9 -0.39,1.56 -1.11,1.97 -0.69,0.41 -1.46,0.61 -2.33,0.61zm-7.19 -6.3l0 0.95 4.68 0 0 0.04c-0.59,0.21 -1.03,0.57 -1.33,1.06 -0.29,0.5 -0.44,1.05 -0.44,1.66 0.02,1.19 0.44,2.07 1.26,2.65 0.83,0.59 1.83,0.89 3.01,0.89 1.18,0 2.17,-0.29 2.99,-0.89 0.84,-0.58 1.27,-1.46 1.29,-2.65 -0.01,-0.6 -0.18,-1.17 -0.51,-1.69 -0.32,-0.53 -0.74,-0.9 -1.27,-1.12l0 -0.03 1.54 0 0 -0.89 -11.22 0zm8.09 -7.14c0.78,0.01 1.4,0.28 1.85,0.81 0.46,0.53 0.69,1.17 0.69,1.94 0,0.46 -0.15,0.86 -0.44,1.21 -0.28,0.35 -0.67,0.53 -1.16,0.54 -0.4,0 -0.71,-0.12 -0.94,-0.37 -0.22,-0.22 -0.38,-0.51 -0.48,-0.86 -0.13,-0.36 -0.22,-0.75 -0.27,-1.19 -0.06,-0.42 -0.12,-0.83 -0.17,-1.24 -0.04,-0.14 -0.08,-0.3 -0.13,-0.46 -0.05,-0.16 -0.13,-0.28 -0.23,-0.36l0 -0.03 1.28 0zm-2.46 4.15c-0.66,-0.03 -1.14,-0.24 -1.45,-0.62 -0.29,-0.37 -0.44,-0.86 -0.44,-1.47 0,-0.58 0.1,-1.07 0.31,-1.46 0.24,-0.39 0.69,-0.58 1.35,-0.59 0.43,0 0.7,0.1 0.83,0.31 0.14,0.21 0.23,0.52 0.27,0.93 0.05,0.52 0.1,1.03 0.17,1.52 0.07,0.5 0.19,0.95 0.36,1.35 0.16,0.41 0.4,0.73 0.72,0.96 0.33,0.25 0.78,0.38 1.35,0.38 0.8,-0.01 1.4,-0.27 1.79,-0.79 0.39,-0.5 0.58,-1.11 0.58,-1.84 -0.01,-0.74 -0.16,-1.32 -0.44,-1.75 -0.28,-0.43 -0.68,-0.8 -1.2,-1.12l0 -0.03c0.43,0.01 0.76,-0.06 1.01,-0.22 0.26,-0.14 0.39,-0.44 0.39,-0.91 0,-0.24 -0.02,-0.45 -0.06,-0.62l-0.83 0c0.04,0.08 0.06,0.18 0.06,0.3 0,0.37 -0.2,0.56 -0.59,0.56l-4.29 0c-0.54,0 -0.99,0.08 -1.34,0.24 -0.34,0.17 -0.6,0.4 -0.78,0.67 -0.19,0.27 -0.32,0.58 -0.39,0.93 -0.06,0.35 -0.09,0.7 -0.09,1.05 0,0.9 0.21,1.65 0.64,2.22 0.43,0.58 1.12,0.9 2.07,0.96l0.01 -0.96zm1.56 -7.88c-0.89,0 -1.68,-0.2 -2.37,-0.61 -0.7,-0.41 -1.06,-1.06 -1.08,-1.97 0.02,-1.02 0.38,-1.74 1.08,-2.17 0.69,-0.41 1.48,-0.61 2.37,-0.6 0.87,-0.01 1.65,0.19 2.33,0.6 0.72,0.43 1.09,1.15 1.11,2.17 -0.02,0.9 -0.39,1.56 -1.11,1.97 -0.69,0.41 -1.46,0.61 -2.33,0.61zm-7.19 -6.3l0 0.95 4.68 0 0 0.04c-0.59,0.21 -1.03,0.57 -1.33,1.06 -0.29,0.5 -0.44,1.05 -0.44,1.66 0.02,1.19 0.44,2.07 1.26,2.65 0.83,0.59 1.83,0.89 3.01,0.89 1.18,0 2.17,-0.29 2.99,-0.89 0.84,-0.58 1.27,-1.46 1.29,-2.65 -0.01,-0.6 -0.18,-1.17 -0.51,-1.69 -0.32,-0.53 -0.74,-0.9 -1.27,-1.12l0 -0.03 1.54 0 0 -0.89 -11.22 0zm7.43 -8.7c-1.18,-0.06 -2.22,0.19 -3.12,0.75 -0.92,0.55 -1.38,1.45 -1.4,2.71 0.02,1.24 0.46,2.14 1.33,2.7 0.85,0.57 1.83,0.85 2.94,0.85 1.18,0 2.17,-0.28 2.99,-0.85 0.84,-0.56 1.27,-1.46 1.29,-2.7 -0.03,-1.93 -1,-3.07 -2.91,-3.43l0 0.96c0.62,0.14 1.12,0.41 1.49,0.81 0.39,0.41 0.58,0.96 0.58,1.66 -0.02,0.9 -0.38,1.56 -1.07,1.97 -0.65,0.42 -1.36,0.63 -2.13,0.63l0 -6.05zm-0.83 6.05c-0.76,-0.08 -1.43,-0.34 -1.99,-0.78 -0.57,-0.43 -0.86,-1.03 -0.87,-1.82 0.01,-0.78 0.3,-1.39 0.87,-1.83 0.55,-0.43 1.21,-0.65 1.99,-0.67l0 5.1zm-1.08 -13.27c-0.88,0.04 -1.54,0.33 -1.98,0.86 -0.42,0.53 -0.63,1.19 -0.63,2 0,0.72 0.17,1.38 0.51,1.98 0.35,0.63 0.93,0.95 1.76,0.97 0.67,-0.01 1.15,-0.22 1.45,-0.64 0.16,-0.19 0.29,-0.43 0.39,-0.7 0.12,-0.26 0.22,-0.54 0.31,-0.85l0.28 -1.23c0.09,-0.45 0.24,-0.85 0.45,-1.19 0.12,-0.17 0.25,-0.3 0.41,-0.39 0.16,-0.09 0.36,-0.14 0.61,-0.14 0.29,0 0.52,0.07 0.71,0.2 0.19,0.14 0.35,0.32 0.47,0.53 0.24,0.46 0.36,0.93 0.36,1.41 0,0.65 -0.17,1.18 -0.52,1.6 -0.35,0.42 -0.85,0.66 -1.51,0.72l0 0.95c0.99,-0.09 1.71,-0.42 2.17,-0.99 0.46,-0.57 0.69,-1.31 0.69,-2.24 0,-0.77 -0.19,-1.47 -0.57,-2.12 -0.38,-0.66 -1,-1 -1.87,-1.02 -0.7,0.01 -1.23,0.25 -1.6,0.7 -0.35,0.45 -0.56,0.96 -0.64,1.54l-0.29 1.28c-0.09,0.34 -0.23,0.69 -0.43,1.05 -0.1,0.16 -0.23,0.3 -0.39,0.41 -0.16,0.12 -0.34,0.17 -0.55,0.17 -0.26,0 -0.48,-0.06 -0.67,-0.18 -0.17,-0.11 -0.31,-0.25 -0.42,-0.44 -0.11,-0.18 -0.19,-0.38 -0.24,-0.59 -0.04,-0.21 -0.06,-0.42 -0.06,-0.64 0,-0.56 0.14,-1.03 0.41,-1.43 0.3,-0.39 0.75,-0.59 1.37,-0.62l0 -0.96zm5.7 -12.01l0 -2.12 -11.22 0 0 2.23 4.09 0 0 0.03 0 -0.02c-0.8,0.52 -1.21,1.46 -1.21,2.42 0,2.39 2.03,3.6 4.21,3.6 2.25,0 4.35,-1.19 4.35,-3.65 0,-1.04 -0.38,-1.95 -1.26,-2.47l0 -0.03 1.04 0zm-4.09 0.03c1.34,0 2.62,0.44 2.62,1.92 0,1.38 -1.34,1.96 -2.61,1.96 -1.34,0 -2.59,-0.5 -2.59,-1.96 0,-1.45 1.26,-1.92 2.58,-1.92zm0.57 -11.54c-2.5,-0.16 -4.83,1.18 -4.83,3.95 0,2.47 1.85,4.15 4.29,4.15 2.51,0 4.28,-1.59 4.28,-4.15 0,-1.84 -0.82,-3.17 -2.73,-3.8l0 1.96c0.5,0.14 1.05,0.86 1.05,1.76 0,1.24 -0.64,1.93 -2.06,2l0 -5.86zm-1.41 5.86c-0.63,-0.03 -1.73,-0.44 -1.73,-1.85 0,-1.08 0.6,-1.57 1.73,-1.78l0 3.63zm2.29 -6.79c2.15,-0.09 2.86,-1.93 2.86,-3.82 0,-1.85 -0.69,-3.71 -2.83,-3.71 -1.51,0 -1.98,1.27 -2.28,2.58 -0.3,1.27 -0.41,2.53 -1.21,2.53 -0.66,0 -0.75,-0.74 -0.75,-1.24 0,-0.8 0.24,-1.46 1.1,-1.52l0 -2.12c-2,0.17 -2.59,1.81 -2.59,3.58 0,1.74 0.53,3.54 2.61,3.54 1.43,0 1.89,-1.29 2.17,-2.58 0.35,-1.6 0.58,-2.53 1.26,-2.53 0.79,0 1.04,0.82 1.04,1.46 0,0.88 -0.39,1.7 -1.37,1.71l0 2.12zm-7.92 -11.66l0 2.23 2.44 0 0 1.35 1.49 0 0 -1.35 4.79 0c1.62,0 1.93,-1.19 1.93,-2.56 0,-0.44 -0.02,-0.93 -0.08,-1.3l-1.74 0c0.05,0.24 0.06,0.46 0.06,0.69 0,0.75 -0.19,0.94 -0.94,0.94l-4.02 0 0 -1.63 -1.49 0 0 1.63 -2.44 0zm7.42 -7.76c0.49,0 1.87,0.06 1.87,1.81 0,0.72 -0.2,1.37 -1.04,1.37 -0.82,0 -1.05,-0.63 -1.19,-1.32 -0.13,-0.69 -0.14,-1.48 -0.47,-1.85l0.83 0zm-2.48 2.92c-0.88,-0.08 -1.23,-0.63 -1.23,-1.48 0,-0.79 0.14,-1.45 1.1,-1.45 0.91,0 0.86,1.27 1.07,2.64 0.19,1.38 0.63,2.77 2.47,2.77 1.67,0 2.44,-1.23 2.44,-2.77 0,-0.99 -0.27,-2.03 -1.01,-2.73 0.27,-0.02 0.53,-0.08 0.79,-0.16l0 -2.26c-0.33,0.2 -1.07,0.28 -1.81,0.28l-4.23 0c-1.95,0 -2.31,1.95 -2.31,3.57 0,1.82 0.63,3.69 2.72,3.82l0 -2.23zm0.36 -14.6c-2.07,0.14 -3.08,1.9 -3.08,3.82 0,2.64 1.87,4.15 4.4,4.15 2.44,0 4.17,-1.65 4.17,-4.1 0,-2.14 -1.18,-3.63 -3.33,-3.91l0 2.15c0.99,0.14 1.65,0.74 1.65,1.78 0,1.4 -1.4,1.85 -2.56,1.85 -1.19,0 -2.64,-0.47 -2.64,-1.9 0,-0.93 0.49,-1.51 1.4,-1.65l0 -2.18zm2.12 -6.37c0.49,0 1.87,0.06 1.87,1.81 0,0.72 -0.2,1.37 -1.04,1.37 -0.82,0 -1.05,-0.63 -1.19,-1.32 -0.13,-0.69 -0.14,-1.48 -0.47,-1.85l0.83 0zm-2.48 2.92c-0.88,-0.08 -1.23,-0.63 -1.23,-1.48 0,-0.79 0.14,-1.45 1.1,-1.45 0.91,0 0.86,1.27 1.07,2.64 0.19,1.38 0.63,2.77 2.47,2.77 1.67,0 2.44,-1.23 2.44,-2.77 0,-0.99 -0.27,-2.03 -1.01,-2.73 0.27,-0.02 0.53,-0.08 0.79,-0.16l0 -2.26c-0.33,0.2 -1.07,0.28 -1.81,0.28l-4.23 0c-1.95,0 -2.31,1.95 -2.31,3.57 0,1.82 0.63,3.69 2.72,3.82l0 -2.23zm5.63 -12.68l0 -2.12 -11.22 0 0 2.23 4.09 0 0 0.03 0 -0.02c-0.8,0.52 -1.21,1.46 -1.21,2.42 0,2.39 2.03,3.6 4.21,3.6 2.25,0 4.35,-1.19 4.35,-3.65 0,-1.04 -0.38,-1.95 -1.26,-2.47l0 -0.03 1.04 0zm-4.09 0.03c1.34,0 2.62,0.44 2.62,1.92 0,1.38 -1.34,1.96 -2.61,1.96 -1.34,0 -2.59,-0.5 -2.59,-1.96 0,-1.45 1.26,-1.92 2.58,-1.92zm0.94 -8.9c0.49,0 1.87,0.06 1.87,1.81 0,0.72 -0.2,1.37 -1.04,1.37 -0.82,0 -1.05,-0.63 -1.19,-1.32 -0.13,-0.69 -0.14,-1.48 -0.47,-1.85l0.83 0zm-2.48 2.92c-0.88,-0.08 -1.23,-0.63 -1.23,-1.48 0,-0.79 0.14,-1.45 1.1,-1.45 0.91,0 0.86,1.27 1.07,2.64 0.19,1.38 0.63,2.77 2.47,2.77 1.67,0 2.44,-1.23 2.44,-2.77 0,-0.99 -0.27,-2.03 -1.01,-2.73 0.27,-0.02 0.53,-0.08 0.79,-0.16l0 -2.26c-0.33,0.2 -1.07,0.28 -1.81,0.28l-4.23 0c-1.95,0 -2.31,1.95 -2.31,3.57 0,1.82 0.63,3.69 2.72,3.82l0 -2.23zm2.99 -6.49c2.15,-0.09 2.86,-1.93 2.86,-3.82 0,-1.85 -0.69,-3.71 -2.83,-3.71 -1.51,0 -1.98,1.27 -2.28,2.58 -0.3,1.27 -0.41,2.53 -1.21,2.53 -0.66,0 -0.75,-0.74 -0.75,-1.24 0,-0.8 0.24,-1.46 1.1,-1.52l0 -2.12c-2,0.17 -2.59,1.81 -2.59,3.58 0,1.74 0.53,3.54 2.61,3.54 1.43,0 1.89,-1.29 2.17,-2.58 0.35,-1.6 0.58,-2.53 1.26,-2.53 0.79,0 1.04,0.82 1.04,1.46 0,0.88 -0.39,1.7 -1.37,1.71l0 2.12z"/>
 </g>
</svg>
