<?xml version="1.0" encoding="UTF-8"?>
<!DOCTYPE svg PUBLIC "-//W3C//DTD SVG 1.1//EN" "http://www.w3.org/Graphics/SVG/1.1/DTD/svg11.dtd">
<!-- Creator: CorelDRAW 2019 (64-Bit) -->
<svg xmlns="http://www.w3.org/2000/svg" xml:space="preserve" width="9.4065mm" height="77.586mm" version="1.1" style="shape-rendering:geometricPrecision; text-rendering:geometricPrecision; image-rendering:optimizeQuality; fill-rule:evenodd; clip-rule:evenodd"
viewBox="0 0 11.55 95.31"
 xmlns:xlink="http://www.w3.org/1999/xlink"
 xmlns:xodm="http://www.corel.com/coreldraw/odm/2003">
 <defs>
  <style type="text/css">
   <![CDATA[
    .fil0 {fill:white;fill-rule:nonzero}
   ]]>
  </style>
 </defs>
 <g id="Layer_x0020_1">
  <metadata id="CorelCorpID_0Corel-Layer"/>
  <path class="fil0" d="M2.14 88.97l0 1.63 4.62 0c1.1,0 1.61,0.37 1.61,1.54 0,1.32 -0.8,1.53 -1.61,1.53l-4.62 0 0 1.63 4.62 0c2.02,0 2.98,-1.16 2.98,-3.16 0,-1.99 -0.98,-3.17 -2.98,-3.17l-4.62 0zm-2.14 1.32l0 1.63 1.48 1 0 -1.03 -1.48 -1.6zm9.57 -2.61l0 -1.48 -7.43 0 0 1.48 7.43 0zm-6.99 -4.51l0 1.48 1.61 0 0 0.89 0.99 0 0 -0.89 3.17 0c1.07,0 1.28,-0.79 1.28,-1.7 0,-0.29 -0.01,-0.61 -0.05,-0.86l-1.15 0c0.03,0.16 0.04,0.3 0.04,0.46 0,0.5 -0.12,0.62 -0.62,0.62l-2.66 0 0 -1.08 -0.99 0 0 1.08 -1.61 0zm6.99 -1.83l0 -1.48 -5.38 0 0 1.48 5.38 0zm-7.43 -1.48l0 1.48 1.22 0 0 -1.48 -1.22 0zm7.43 -1.21l0 -1.48 -3.12 0c-1.05,0 -1.24,-0.71 -1.24,-1 0,-0.94 0.72,-0.89 1.34,-0.89l3.02 0 0 -1.48 -3 0c-0.68,0 -1.36,-0.16 -1.36,-0.99 0,-0.84 0.59,-0.9 1.31,-0.9l3.05 0 0 -1.48 -3.6 0c-1.39,0 -1.92,0.82 -1.92,1.97 0,0.75 0.43,1.31 0.89,1.62 -0.64,0.29 -0.89,0.89 -0.89,1.57 0,0.7 0.32,1.26 0.87,1.64l0 0.02 -0.73 0 0 1.39 5.38 0zm-2.08 -12.73c0.32,0 1.24,0.04 1.24,1.2 0,0.48 -0.14,0.9 -0.69,0.9 -0.54,0 -0.7,-0.42 -0.79,-0.87 -0.08,-0.46 -0.09,-0.98 -0.31,-1.23l0.55 0zm-1.64 1.93c-0.58,-0.05 -0.81,-0.42 -0.81,-0.98 0,-0.52 0.09,-0.96 0.73,-0.96 0.6,0 0.57,0.84 0.71,1.75 0.12,0.92 0.42,1.83 1.63,1.83 1.1,0 1.61,-0.81 1.61,-1.83 0,-0.66 -0.18,-1.34 -0.67,-1.81 0.18,-0.01 0.35,-0.05 0.52,-0.1l0 -1.5c-0.22,0.14 -0.71,0.19 -1.2,0.19l-2.8 0c-1.29,0 -1.53,1.29 -1.53,2.36 0,1.21 0.42,2.44 1.8,2.53l0 -1.48zm1.98 -4.3c1.42,-0.06 1.89,-1.28 1.89,-2.53 0,-1.23 -0.46,-2.45 -1.87,-2.45 -1,0 -1.31,0.84 -1.51,1.71 -0.2,0.84 -0.27,1.67 -0.8,1.67 -0.44,0 -0.5,-0.49 -0.5,-0.82 0,-0.53 0.16,-0.97 0.73,-1.01l0 -1.4c-1.32,0.11 -1.72,1.2 -1.72,2.37 0,1.15 0.35,2.34 1.73,2.34 0.95,0 1.25,-0.85 1.44,-1.71 0.23,-1.06 0.38,-1.67 0.83,-1.67 0.52,0 0.69,0.54 0.69,0.97 0,0.58 -0.26,1.12 -0.9,1.13l0 1.4zm-0.92 -12.94c0.57,0 1.09,0.13 1.54,0.39 0.48,0.27 0.72,0.71 0.73,1.31 -0.01,0.67 -0.26,1.14 -0.73,1.41 -0.22,0.14 -0.47,0.25 -0.74,0.32 -0.26,0.07 -0.53,0.1 -0.8,0.1 -0.63,0.01 -1.17,-0.12 -1.61,-0.4 -0.21,-0.14 -0.38,-0.33 -0.5,-0.57 -0.12,-0.23 -0.18,-0.52 -0.18,-0.86 0.01,-0.6 0.25,-1.04 0.71,-1.31 0.46,-0.26 0.98,-0.39 1.57,-0.39zm4.66 4.16l0 -0.63 -3 0 0 -0.02c0.38,-0.15 0.67,-0.4 0.87,-0.72 0.2,-0.32 0.3,-0.68 0.3,-1.08 -0.01,-0.79 -0.3,-1.38 -0.85,-1.77 -0.54,-0.38 -1.2,-0.57 -1.98,-0.57 -0.78,0 -1.45,0.19 -1.99,0.57 -0.54,0.39 -0.82,0.98 -0.84,1.77 0,0.42 0.1,0.8 0.29,1.13 0.21,0.33 0.49,0.57 0.85,0.72l0 0.02 -1.02 0 0 0.58 7.36 0zm-1.99 -5.97l0 -0.63 -2.85 0c-0.58,-0.01 -1.05,-0.19 -1.41,-0.54 -0.36,-0.34 -0.53,-0.81 -0.51,-1.39l-0.65 0c-0.01,0.96 0.43,1.62 1.31,1.96l0 0.02 -1.26 0 0 0.58 5.38 0zm-5.5 -5.28c0.01,0.8 0.29,1.41 0.83,1.83 0.54,0.42 1.21,0.64 2,0.64 0.79,0 1.45,-0.21 1.98,-0.64 0.55,-0.42 0.84,-1.03 0.85,-1.83 -0.01,-0.8 -0.3,-1.41 -0.85,-1.84 -0.53,-0.42 -1.19,-0.63 -1.98,-0.63 -0.8,0 -1.46,0.21 -2,0.63 -0.54,0.42 -0.81,1.04 -0.83,1.84zm0.55 0c0.01,-0.62 0.25,-1.07 0.7,-1.38 0.46,-0.3 0.98,-0.46 1.58,-0.46 0.59,0 1.11,0.15 1.56,0.46 0.46,0.3 0.7,0.76 0.71,1.38 -0.01,0.61 -0.25,1.06 -0.71,1.37 -0.45,0.31 -0.97,0.46 -1.56,0.46 -0.59,0 -1.12,-0.16 -1.58,-0.46 -0.46,-0.3 -0.69,-0.76 -0.7,-1.37zm2.28 -7.75c0.57,0 1.09,0.13 1.54,0.39 0.48,0.27 0.72,0.71 0.73,1.31 -0.01,0.67 -0.26,1.14 -0.73,1.41 -0.22,0.14 -0.47,0.25 -0.74,0.32 -0.26,0.07 -0.53,0.1 -0.8,0.1 -0.63,0.01 -1.17,-0.12 -1.61,-0.4 -0.21,-0.14 -0.38,-0.33 -0.5,-0.57 -0.12,-0.23 -0.18,-0.52 -0.18,-0.86 0.01,-0.6 0.25,-1.04 0.71,-1.31 0.46,-0.26 0.98,-0.39 1.57,-0.39zm4.66 4.16l0 -0.63 -3 0 0 -0.02c0.38,-0.15 0.67,-0.4 0.87,-0.72 0.2,-0.32 0.3,-0.68 0.3,-1.08 -0.01,-0.79 -0.3,-1.38 -0.85,-1.77 -0.54,-0.38 -1.2,-0.57 -1.98,-0.57 -0.78,0 -1.45,0.19 -1.99,0.57 -0.54,0.39 -0.82,0.98 -0.84,1.77 0,0.42 0.1,0.8 0.29,1.13 0.21,0.33 0.49,0.57 0.85,0.72l0 0.02 -1.02 0 0 0.58 7.36 0zm-1.99 -5.98l0 -0.63 -5.38 0 0 0.63 5.38 0zm-6.38 0l0 -0.63 -1.05 0 0 0.63 1.05 0zm3.87 -6.28c-0.78,-0.04 -1.47,0.12 -2.06,0.5 -0.61,0.36 -0.92,0.96 -0.93,1.79 0.01,0.82 0.31,1.42 0.88,1.79 0.56,0.37 1.21,0.56 1.95,0.56 0.78,0 1.44,-0.19 1.98,-0.56 0.55,-0.37 0.84,-0.97 0.85,-1.79 -0.02,-1.28 -0.66,-2.03 -1.92,-2.27l0 0.63c0.41,0.1 0.74,0.27 0.99,0.54 0.26,0.27 0.39,0.64 0.39,1.1 -0.01,0.6 -0.25,1.03 -0.71,1.3 -0.43,0.28 -0.9,0.41 -1.41,0.41l0 -4zm-0.55 4c-0.5,-0.05 -0.94,-0.22 -1.32,-0.51 -0.38,-0.28 -0.57,-0.68 -0.58,-1.2 0.01,-0.52 0.2,-0.92 0.58,-1.21 0.36,-0.28 0.8,-0.43 1.32,-0.44l0 3.37zm0.38 -5.44c-0.59,0 -1.11,-0.14 -1.57,-0.41 -0.46,-0.27 -0.7,-0.7 -0.71,-1.3 0.01,-0.67 0.25,-1.15 0.71,-1.44 0.46,-0.27 0.98,-0.4 1.57,-0.4 0.57,-0.01 1.09,0.12 1.54,0.4 0.48,0.28 0.72,0.76 0.73,1.44 -0.01,0.6 -0.26,1.03 -0.73,1.3 -0.45,0.27 -0.97,0.41 -1.54,0.41zm-4.75 -4.17l0 0.63 3.1 0 0 0.03c-0.39,0.14 -0.68,0.38 -0.88,0.7 -0.19,0.33 -0.29,0.7 -0.29,1.1 0.01,0.79 0.29,1.37 0.84,1.75 0.55,0.39 1.21,0.59 1.99,0.59 0.78,0 1.44,-0.19 1.98,-0.59 0.55,-0.38 0.84,-0.97 0.85,-1.75 -0.01,-0.4 -0.12,-0.77 -0.33,-1.12 -0.21,-0.35 -0.49,-0.6 -0.84,-0.74l0 -0.02 1.02 0 0 -0.59 -7.43 0zm5.35 -4.72c0.52,0.01 0.93,0.19 1.22,0.54 0.3,0.35 0.46,0.78 0.46,1.28 0,0.3 -0.1,0.57 -0.29,0.8 -0.19,0.23 -0.44,0.35 -0.77,0.36 -0.26,0 -0.47,-0.08 -0.62,-0.24 -0.15,-0.15 -0.25,-0.34 -0.32,-0.57 -0.09,-0.24 -0.14,-0.5 -0.18,-0.79 -0.04,-0.28 -0.08,-0.55 -0.11,-0.82 -0.02,-0.1 -0.05,-0.2 -0.09,-0.3 -0.03,-0.11 -0.09,-0.19 -0.15,-0.24l0 -0.02 0.84 0zm-1.63 2.75c-0.44,-0.02 -0.76,-0.16 -0.96,-0.41 -0.19,-0.24 -0.29,-0.57 -0.29,-0.97 0,-0.38 0.07,-0.71 0.21,-0.97 0.16,-0.25 0.46,-0.39 0.89,-0.39 0.28,0 0.47,0.07 0.55,0.2 0.09,0.14 0.15,0.35 0.18,0.62 0.03,0.34 0.07,0.68 0.11,1.01 0.05,0.33 0.13,0.63 0.24,0.9 0.1,0.27 0.26,0.48 0.47,0.64 0.22,0.17 0.51,0.25 0.89,0.25 0.53,-0.01 0.93,-0.18 1.18,-0.52 0.26,-0.33 0.38,-0.73 0.38,-1.22 -0.01,-0.49 -0.1,-0.87 -0.29,-1.16 -0.19,-0.28 -0.45,-0.53 -0.79,-0.74l0 -0.02c0.28,0.01 0.51,-0.04 0.67,-0.14 0.17,-0.09 0.26,-0.29 0.26,-0.6 0,-0.16 -0.01,-0.29 -0.04,-0.41l-0.55 0c0.03,0.05 0.04,0.12 0.04,0.2 0,0.25 -0.13,0.37 -0.39,0.37l-2.84 0c-0.36,0 -0.66,0.05 -0.89,0.16 -0.23,0.11 -0.4,0.26 -0.52,0.44 -0.12,0.18 -0.21,0.38 -0.26,0.61 -0.04,0.23 -0.06,0.46 -0.06,0.69 0,0.6 0.14,1.09 0.43,1.47 0.28,0.38 0.74,0.59 1.37,0.63l0.01 -0.63zm1.03 -5.22c-0.59,0 -1.11,-0.14 -1.57,-0.41 -0.46,-0.27 -0.7,-0.7 -0.71,-1.3 0.01,-0.67 0.25,-1.15 0.71,-1.44 0.46,-0.27 0.98,-0.4 1.57,-0.4 0.57,-0.01 1.09,0.12 1.54,0.4 0.48,0.28 0.72,0.76 0.73,1.44 -0.01,0.6 -0.26,1.03 -0.73,1.3 -0.45,0.27 -0.97,0.41 -1.54,0.41zm-4.75 -4.17l0 0.63 3.1 0 0 0.03c-0.39,0.14 -0.68,0.38 -0.88,0.7 -0.19,0.33 -0.29,0.7 -0.29,1.1 0.01,0.79 0.29,1.37 0.84,1.75 0.55,0.39 1.21,0.59 1.99,0.59 0.78,0 1.44,-0.19 1.98,-0.59 0.55,-0.38 0.84,-0.97 0.85,-1.75 -0.01,-0.4 -0.12,-0.77 -0.33,-1.12 -0.21,-0.35 -0.49,-0.6 -0.84,-0.74l0 -0.02 1.02 0 0 -0.59 -7.43 0zm4.92 -5.76c-0.78,-0.04 -1.47,0.12 -2.06,0.5 -0.61,0.36 -0.92,0.96 -0.93,1.79 0.01,0.82 0.31,1.42 0.88,1.79 0.56,0.37 1.21,0.56 1.95,0.56 0.78,0 1.44,-0.19 1.98,-0.56 0.55,-0.37 0.84,-0.97 0.85,-1.79 -0.02,-1.28 -0.66,-2.03 -1.92,-2.27l0 0.63c0.41,0.1 0.74,0.27 0.99,0.54 0.26,0.27 0.39,0.64 0.39,1.1 -0.01,0.6 -0.25,1.03 -0.71,1.3 -0.43,0.28 -0.9,0.41 -1.41,0.41l0 -4zm-0.55 4c-0.5,-0.05 -0.94,-0.22 -1.32,-0.51 -0.38,-0.28 -0.57,-0.68 -0.58,-1.2 0.01,-0.52 0.2,-0.92 0.58,-1.21 0.36,-0.28 0.8,-0.43 1.32,-0.44l0 3.37zm-0.72 -8.78c-0.58,0.03 -1.02,0.22 -1.31,0.57 -0.28,0.35 -0.42,0.79 -0.42,1.32 0,0.48 0.11,0.91 0.34,1.31 0.23,0.41 0.62,0.63 1.16,0.64 0.44,-0.01 0.76,-0.15 0.96,-0.42 0.11,-0.13 0.19,-0.28 0.26,-0.47 0.08,-0.17 0.15,-0.36 0.21,-0.56l0.19 -0.81c0.06,-0.3 0.16,-0.56 0.3,-0.79 0.08,-0.11 0.17,-0.2 0.27,-0.26 0.11,-0.06 0.24,-0.09 0.4,-0.09 0.19,0 0.34,0.05 0.47,0.13 0.12,0.1 0.23,0.21 0.31,0.35 0.16,0.3 0.24,0.61 0.24,0.93 0,0.43 -0.11,0.78 -0.34,1.06 -0.23,0.28 -0.56,0.44 -1,0.48l0 0.63c0.65,-0.06 1.13,-0.28 1.44,-0.66 0.3,-0.37 0.46,-0.87 0.46,-1.48 0,-0.51 -0.12,-0.98 -0.37,-1.4 -0.25,-0.44 -0.66,-0.66 -1.23,-0.68 -0.46,0.01 -0.81,0.16 -1.06,0.46 -0.23,0.29 -0.37,0.63 -0.42,1.02l-0.19 0.84c-0.06,0.23 -0.15,0.46 -0.28,0.69 -0.07,0.11 -0.15,0.2 -0.26,0.27 -0.1,0.08 -0.23,0.11 -0.36,0.11 -0.17,0 -0.32,-0.04 -0.44,-0.12 -0.11,-0.07 -0.21,-0.17 -0.28,-0.29 -0.07,-0.12 -0.13,-0.25 -0.16,-0.39 -0.03,-0.14 -0.04,-0.28 -0.04,-0.42 0,-0.37 0.09,-0.68 0.27,-0.94 0.2,-0.25 0.5,-0.39 0.91,-0.41l0 -0.63z"/>
 </g>
</svg>
