<?xml version="1.0" encoding="UTF-8"?>
<!DOCTYPE svg PUBLIC "-//W3C//DTD SVG 1.1//EN" "http://www.w3.org/Graphics/SVG/1.1/DTD/svg11.dtd">
<!-- Creator: CorelDRAW 2019 (64-Bit) -->
<svg xmlns="http://www.w3.org/2000/svg" xml:space="preserve" width="7.6623mm" height="77.586mm" version="1.1" style="shape-rendering:geometricPrecision; text-rendering:geometricPrecision; image-rendering:optimizeQuality; fill-rule:evenodd; clip-rule:evenodd"
viewBox="0 0 7.96 80.57"
 xmlns:xlink="http://www.w3.org/1999/xlink"
 xmlns:xodm="http://www.corel.com/coreldraw/odm/2003">
 <defs>
  <style type="text/css">
   <![CDATA[
    .fil0 {fill:white;fill-rule:nonzero}
   ]]>
  </style>
 </defs>
 <g id="Layer_x0020_1">
  <metadata id="CorelCorpID_0Corel-Layer"/>
  <path class="fil0" d="M-0 75.22l0 1.38 3.9 0c0.93,0 1.36,0.32 1.36,1.3 0,1.12 -0.68,1.29 -1.36,1.29l-3.9 0 0 1.38 3.9 0c1.71,0 2.52,-0.98 2.52,-2.67 0,-1.68 -0.83,-2.68 -2.52,-2.68l-3.9 0zm6.28 -1.09l0 -1.25 -6.28 0 0 1.25 6.28 0zm-5.91 -3.82l0 1.25 1.36 0 0 0.76 0.84 0 0 -0.76 2.68 0c0.91,0 1.08,-0.67 1.08,-1.43 0,-0.25 -0.01,-0.52 -0.04,-0.73l-0.98 0c0.03,0.13 0.04,0.25 0.04,0.39 0,0.42 -0.11,0.53 -0.53,0.53l-2.25 0 0 -0.91 -0.84 0 0 0.91 -1.36 0zm5.91 -1.55l0 -1.25 -4.55 0 0 1.25 4.55 0zm-6.28 -1.25l0 1.25 1.03 0 0 -1.25 -1.03 0zm6.28 -1.02l0 -1.25 -2.64 0c-0.89,0 -1.05,-0.6 -1.05,-0.84 0,-0.79 0.61,-0.76 1.13,-0.76l2.55 0 0 -1.25 -2.53 0c-0.57,0 -1.15,-0.13 -1.15,-0.84 0,-0.71 0.5,-0.76 1.11,-0.76l2.58 0 0 -1.25 -3.04 0c-1.18,0 -1.63,0.69 -1.63,1.66 0,0.63 0.36,1.11 0.76,1.37 -0.55,0.25 -0.76,0.76 -0.76,1.33 0,0.59 0.27,1.06 0.74,1.39l0 0.02 -0.62 0 0 1.18 4.55 0zm-1.76 -10.76c0.27,0 1.05,0.04 1.05,1.01 0,0.4 -0.11,0.76 -0.58,0.76 -0.46,0 -0.59,-0.35 -0.67,-0.74 -0.07,-0.39 -0.08,-0.83 -0.26,-1.04l0.47 0zm-1.39 1.64c-0.49,-0.04 -0.69,-0.35 -0.69,-0.83 0,-0.44 0.08,-0.81 0.62,-0.81 0.51,0 0.48,0.71 0.6,1.48 0.11,0.77 0.35,1.55 1.38,1.55 0.93,0 1.36,-0.69 1.36,-1.55 0,-0.55 -0.15,-1.13 -0.56,-1.53 0.15,-0.01 0.3,-0.04 0.44,-0.09l0 -1.27c-0.18,0.11 -0.6,0.16 -1.01,0.16l-2.37 0c-1.09,0 -1.29,1.09 -1.29,2 0,1.02 0.35,2.07 1.52,2.14l0 -1.25zm1.67 -3.63c1.2,-0.05 1.6,-1.08 1.6,-2.14 0,-1.04 -0.39,-2.08 -1.58,-2.08 -0.84,0 -1.11,0.71 -1.27,1.44 -0.17,0.71 -0.23,1.42 -0.68,1.42 -0.37,0 -0.42,-0.41 -0.42,-0.69 0,-0.45 0.13,-0.82 0.62,-0.85l0 -1.19c-1.12,0.1 -1.45,1.01 -1.45,2 0,0.98 0.3,1.98 1.46,1.98 0.8,0 1.06,-0.72 1.21,-1.44 0.19,-0.9 0.33,-1.42 0.7,-1.42 0.44,0 0.58,0.46 0.58,0.82 0,0.49 -0.22,0.95 -0.76,0.96l0 1.19zm-0.78 -10.94c0.48,0 0.92,0.11 1.3,0.33 0.4,0.23 0.61,0.6 0.62,1.11 -0.01,0.56 -0.22,0.96 -0.62,1.19 -0.19,0.12 -0.4,0.21 -0.62,0.27 -0.22,0.06 -0.45,0.08 -0.68,0.08 -0.53,0 -0.99,-0.11 -1.36,-0.33 -0.18,-0.12 -0.32,-0.28 -0.42,-0.48 -0.1,-0.19 -0.15,-0.44 -0.15,-0.73 0.01,-0.51 0.21,-0.88 0.6,-1.11 0.39,-0.22 0.83,-0.33 1.32,-0.33zm3.94 3.52l0 -0.53 -2.54 0 0 -0.02c0.32,-0.13 0.57,-0.33 0.73,-0.61 0.17,-0.27 0.26,-0.58 0.26,-0.91 -0.01,-0.67 -0.25,-1.17 -0.72,-1.5 -0.46,-0.32 -1.01,-0.48 -1.67,-0.48 -0.66,0 -1.22,0.16 -1.69,0.48 -0.46,0.33 -0.69,0.83 -0.71,1.5 0,0.36 0.08,0.68 0.25,0.96 0.17,0.28 0.41,0.48 0.72,0.61l0 0.02 -0.86 0 0 0.49 6.23 0zm-1.68 -5.04l0 -0.53 -2.41 0c-0.49,-0.01 -0.89,-0.16 -1.2,-0.46 -0.3,-0.29 -0.45,-0.68 -0.43,-1.18l-0.55 0c-0.01,0.81 0.36,1.37 1.11,1.66l0 0.02 -1.06 0 0 0.49 4.55 0zm-4.65 -4.46c0.01,0.68 0.24,1.19 0.7,1.54 0.46,0.36 1.02,0.54 1.69,0.54 0.66,0 1.22,-0.18 1.67,-0.54 0.47,-0.35 0.71,-0.87 0.72,-1.54 -0.01,-0.68 -0.25,-1.2 -0.72,-1.55 -0.45,-0.35 -1.01,-0.53 -1.67,-0.53 -0.67,0 -1.24,0.18 -1.69,0.53 -0.45,0.36 -0.69,0.88 -0.7,1.55zm0.46 0c0.01,-0.52 0.21,-0.91 0.6,-1.17 0.39,-0.26 0.83,-0.39 1.33,-0.39 0.5,0 0.94,0.13 1.32,0.39 0.39,0.26 0.59,0.64 0.6,1.17 -0.01,0.51 -0.21,0.9 -0.6,1.15 -0.38,0.26 -0.82,0.39 -1.32,0.39 -0.5,0 -0.95,-0.13 -1.33,-0.39 -0.39,-0.26 -0.58,-0.64 -0.6,-1.15zm1.93 -6.56c0.48,0 0.92,0.11 1.3,0.33 0.4,0.23 0.61,0.6 0.62,1.11 -0.01,0.56 -0.22,0.96 -0.62,1.19 -0.19,0.12 -0.4,0.21 -0.62,0.27 -0.22,0.06 -0.45,0.08 -0.68,0.08 -0.53,0 -0.99,-0.11 -1.36,-0.33 -0.18,-0.12 -0.32,-0.28 -0.42,-0.48 -0.1,-0.19 -0.15,-0.44 -0.15,-0.73 0.01,-0.51 0.21,-0.88 0.6,-1.11 0.39,-0.22 0.83,-0.33 1.32,-0.33zm3.94 3.52l0 -0.53 -2.54 0 0 -0.02c0.32,-0.13 0.57,-0.33 0.73,-0.61 0.17,-0.27 0.26,-0.58 0.26,-0.91 -0.01,-0.67 -0.25,-1.17 -0.72,-1.5 -0.46,-0.32 -1.01,-0.48 -1.67,-0.48 -0.66,0 -1.22,0.16 -1.69,0.48 -0.46,0.33 -0.69,0.83 -0.71,1.5 0,0.36 0.08,0.68 0.25,0.96 0.17,0.28 0.41,0.48 0.72,0.61l0 0.02 -0.86 0 0 0.49 6.23 0zm-1.68 -5.05l0 -0.53 -4.55 0 0 0.53 4.55 0zm-5.39 0l0 -0.53 -0.89 0 0 0.53 0.89 0zm3.27 -5.31c-0.66,-0.04 -1.24,0.11 -1.75,0.42 -0.51,0.31 -0.77,0.81 -0.79,1.52 0.01,0.69 0.26,1.2 0.74,1.51 0.47,0.32 1.02,0.47 1.65,0.47 0.66,0 1.22,-0.16 1.67,-0.47 0.47,-0.31 0.71,-0.82 0.72,-1.51 -0.02,-1.08 -0.56,-1.72 -1.63,-1.92l0 0.53c0.35,0.08 0.62,0.23 0.83,0.45 0.22,0.23 0.33,0.54 0.33,0.93 -0.01,0.51 -0.21,0.87 -0.6,1.1 -0.36,0.23 -0.76,0.35 -1.19,0.35l0 -3.39zm-0.46 3.39c-0.42,-0.05 -0.8,-0.19 -1.11,-0.43 -0.32,-0.24 -0.48,-0.58 -0.49,-1.02 0.01,-0.44 0.17,-0.78 0.49,-1.03 0.31,-0.24 0.68,-0.36 1.11,-0.38l0 2.85zm0.33 -4.6c-0.5,0 -0.94,-0.11 -1.32,-0.34 -0.39,-0.23 -0.59,-0.59 -0.6,-1.1 0.01,-0.57 0.21,-0.98 0.6,-1.21 0.39,-0.23 0.83,-0.34 1.32,-0.33 0.48,-0.01 0.92,0.11 1.3,0.33 0.4,0.24 0.61,0.64 0.62,1.21 -0.01,0.51 -0.22,0.87 -0.62,1.1 -0.38,0.23 -0.82,0.34 -1.3,0.34zm-4.02 -3.53l0 0.53 2.62 0 0 0.02c-0.33,0.12 -0.58,0.32 -0.75,0.59 -0.16,0.28 -0.24,0.59 -0.24,0.93 0.01,0.67 0.25,1.16 0.71,1.48 0.46,0.33 1.02,0.5 1.69,0.5 0.66,0 1.22,-0.16 1.67,-0.5 0.47,-0.32 0.71,-0.82 0.72,-1.48 -0.01,-0.34 -0.1,-0.65 -0.28,-0.95 -0.18,-0.3 -0.42,-0.5 -0.71,-0.62l0 -0.02 0.86 0 0 -0.5 -6.28 0zm4.53 -3.99c0.44,0.01 0.78,0.16 1.03,0.45 0.26,0.29 0.39,0.66 0.39,1.08 0,0.26 -0.08,0.48 -0.24,0.68 -0.16,0.2 -0.37,0.3 -0.65,0.3 -0.22,0 -0.4,-0.07 -0.53,-0.21 -0.12,-0.12 -0.21,-0.29 -0.27,-0.48 -0.07,-0.2 -0.12,-0.42 -0.15,-0.67 -0.03,-0.23 -0.07,-0.46 -0.09,-0.69 -0.02,-0.08 -0.04,-0.17 -0.07,-0.26 -0.03,-0.09 -0.07,-0.16 -0.13,-0.2l0 -0.02 0.71 0zm-1.38 2.32c-0.37,-0.02 -0.64,-0.13 -0.81,-0.35 -0.16,-0.21 -0.24,-0.48 -0.24,-0.82 0,-0.32 0.06,-0.6 0.18,-0.82 0.13,-0.22 0.39,-0.33 0.75,-0.33 0.24,0 0.39,0.06 0.47,0.17 0.08,0.12 0.13,0.29 0.15,0.52 0.03,0.29 0.06,0.58 0.09,0.85 0.04,0.28 0.11,0.53 0.2,0.76 0.09,0.23 0.22,0.41 0.4,0.54 0.18,0.14 0.43,0.21 0.75,0.21 0.45,-0 0.78,-0.15 1,-0.44 0.22,-0.28 0.33,-0.62 0.33,-1.03 -0.01,-0.41 -0.09,-0.74 -0.25,-0.98 -0.16,-0.24 -0.38,-0.45 -0.67,-0.62l0 -0.02c0.24,0.01 0.43,-0.04 0.57,-0.12 0.15,-0.08 0.22,-0.25 0.22,-0.51 0,-0.13 -0.01,-0.25 -0.03,-0.35l-0.47 0c0.02,0.04 0.04,0.1 0.04,0.17 0,0.21 -0.11,0.31 -0.33,0.31l-2.4 0c-0.3,0 -0.56,0.05 -0.75,0.14 -0.19,0.1 -0.34,0.22 -0.44,0.37 -0.11,0.15 -0.18,0.33 -0.22,0.52 -0.03,0.19 -0.05,0.39 -0.05,0.59 0,0.51 0.12,0.92 0.36,1.24 0.24,0.32 0.63,0.5 1.16,0.53l0 -0.54zm0.87 -4.41c-0.5,0 -0.94,-0.11 -1.32,-0.34 -0.39,-0.23 -0.59,-0.59 -0.6,-1.1 0.01,-0.57 0.21,-0.98 0.6,-1.21 0.39,-0.23 0.83,-0.34 1.32,-0.33 0.48,-0.01 0.92,0.11 1.3,0.33 0.4,0.24 0.61,0.64 0.62,1.21 -0.01,0.51 -0.22,0.87 -0.62,1.1 -0.38,0.23 -0.82,0.34 -1.3,0.34zm-4.02 -3.53l0 0.53 2.62 0 0 0.02c-0.33,0.12 -0.58,0.32 -0.75,0.59 -0.16,0.28 -0.24,0.59 -0.24,0.93 0.01,0.67 0.25,1.16 0.71,1.48 0.46,0.33 1.02,0.5 1.69,0.5 0.66,0 1.22,-0.16 1.67,-0.5 0.47,-0.32 0.71,-0.82 0.72,-1.48 -0.01,-0.34 -0.1,-0.65 -0.28,-0.95 -0.18,-0.3 -0.42,-0.5 -0.71,-0.62l0 -0.02 0.86 0 0 -0.5 -6.28 0zm4.16 -4.87c-0.66,-0.04 -1.24,0.11 -1.75,0.42 -0.51,0.31 -0.77,0.81 -0.79,1.52 0.01,0.69 0.26,1.2 0.74,1.51 0.47,0.32 1.02,0.47 1.65,0.47 0.66,0 1.22,-0.16 1.67,-0.47 0.47,-0.31 0.71,-0.82 0.72,-1.51 -0.02,-1.08 -0.56,-1.72 -1.63,-1.92l0 0.53c0.35,0.08 0.62,0.23 0.83,0.45 0.22,0.23 0.33,0.54 0.33,0.93 -0.01,0.51 -0.21,0.87 -0.6,1.1 -0.36,0.23 -0.76,0.35 -1.19,0.35l0 -3.39zm-0.46 3.39c-0.42,-0.05 -0.8,-0.19 -1.11,-0.43 -0.32,-0.24 -0.48,-0.58 -0.49,-1.02 0.01,-0.44 0.17,-0.78 0.49,-1.03 0.31,-0.24 0.68,-0.36 1.11,-0.38l0 2.85zm-0.61 -7.42c-0.49,0.02 -0.86,0.19 -1.11,0.48 -0.23,0.3 -0.35,0.67 -0.35,1.12 0,0.4 0.1,0.77 0.29,1.11 0.19,0.35 0.52,0.53 0.98,0.54 0.37,-0 0.64,-0.12 0.81,-0.36 0.09,-0.11 0.16,-0.24 0.22,-0.39 0.07,-0.15 0.12,-0.3 0.18,-0.47l0.16 -0.69c0.05,-0.25 0.13,-0.47 0.25,-0.66 0.07,-0.1 0.14,-0.17 0.23,-0.22 0.09,-0.05 0.2,-0.08 0.34,-0.08 0.16,0 0.29,0.04 0.4,0.11 0.11,0.08 0.19,0.18 0.26,0.3 0.13,0.25 0.2,0.52 0.2,0.79 0,0.36 -0.1,0.66 -0.29,0.89 -0.19,0.23 -0.48,0.37 -0.85,0.4l0 0.53c0.55,-0.05 0.96,-0.24 1.21,-0.56 0.26,-0.32 0.39,-0.73 0.39,-1.25 0,-0.43 -0.11,-0.83 -0.32,-1.19 -0.21,-0.37 -0.56,-0.56 -1.04,-0.57 -0.39,0.01 -0.69,0.14 -0.89,0.39 -0.2,0.25 -0.32,0.53 -0.36,0.86l-0.16 0.71c-0.05,0.19 -0.13,0.39 -0.24,0.58 -0.06,0.09 -0.13,0.17 -0.22,0.23 -0.09,0.06 -0.19,0.1 -0.31,0.1 -0.15,0 -0.27,-0.03 -0.38,-0.1 -0.1,-0.06 -0.18,-0.14 -0.24,-0.24 -0.06,-0.1 -0.11,-0.21 -0.13,-0.33 -0.02,-0.12 -0.04,-0.24 -0.04,-0.36 0,-0.31 0.08,-0.58 0.23,-0.8 0.17,-0.22 0.42,-0.33 0.77,-0.35l0 -0.54z"/>
 </g>
</svg>
