<?xml version="1.0" encoding="UTF-8"?>
<!DOCTYPE svg PUBLIC "-//W3C//DTD SVG 1.1//EN" "http://www.w3.org/Graphics/SVG/1.1/DTD/svg11.dtd">
<!-- Creator: CorelDRAW 2019 (64-Bit) -->
<svg xmlns="http://www.w3.org/2000/svg" xml:space="preserve" width="48.7655mm" height="36.4848mm" version="1.1" style="shape-rendering:geometricPrecision; text-rendering:geometricPrecision; image-rendering:optimizeQuality; fill-rule:evenodd; clip-rule:evenodd"
viewBox="0 0 1090.78 816.08"
 xmlns:xlink="http://www.w3.org/1999/xlink"
 xmlns:xodm="http://www.corel.com/coreldraw/odm/2003">
 <defs>
  <style type="text/css">
   <![CDATA[
    .fil2 {fill:#96989B;fill-rule:nonzero}
    .fil1 {fill:#717170;fill-rule:nonzero}
    .fil0 {fill:#72B052;fill-rule:nonzero}
   ]]>
  </style>
 </defs>
 <g id="Layer_x0020_1">
  <metadata id="CorelCorpID_0Corel-Layer"/>
  <g id="_1459735939216">
   <polygon class="fil0" points="42.38,728.56 31.36,728.56 0.65,635.01 15.29,635.03 36.83,703.15 58.41,635.02 73.34,635.01 "/>
   <polygon class="fil0" points="112.44,728.56 112.44,635.01 172.14,635.01 172.14,647.73 126.61,647.73 126.61,675.03 165.45,675.03 165.45,687.62 126.61,687.62 126.61,715.83 172.14,715.83 172.14,728.56 "/>
   <path class="fil0" d="M252.97 647.73l-20.99 0 0 29.39 20.99 0c4.72,0 8.55,-1.3 11.48,-3.89 2.93,-2.59 4.39,-6.17 4.39,-10.74 0,-4.57 -1.44,-8.17 -4.33,-10.81 -2.89,-2.64 -6.74,-3.96 -11.55,-3.96zm16.38 80.84l-19.63 -39.52 -17.75 0.02 0 39.49 -14.17 0 0 -93.55 36.21 0c8.75,0 15.76,2.52 21.06,7.55 5.29,5.03 7.94,11.61 7.94,19.75 0,6.39 -1.73,11.74 -5.18,16.07 -3.46,4.33 -7.94,7.24 -13.45,8.73l21.52 41.46 -16.55 0.01z"/>
   <path class="fil0" d="M366.47 687.1l-22.31 0 0 28.73 22.31 0c4.81,0 8.57,-1.32 11.28,-3.97 2.71,-2.65 4.07,-6.14 4.07,-10.46 0,-4.33 -1.34,-7.79 -4,-10.39 -2.67,-2.61 -6.45,-3.91 -11.35,-3.91zm-1.31 -39.37l-20.99 0 0 26.64 20.99 0c4.63,0 8.33,-1.15 11.09,-3.46 2.75,-2.31 4.13,-5.59 4.13,-9.86 0,-4.26 -1.38,-7.55 -4.13,-9.86 -2.76,-2.3 -6.46,-3.46 -11.09,-3.46zm2.62 80.83l-37.79 0 0 -93.55 36.35 0c8.66,0 15.53,2.27 20.6,6.8 5.07,4.54 7.61,10.77 7.61,18.71 0,4.71 -1.25,8.83 -3.74,12.36 -2.49,3.54 -5.45,6 -8.86,7.39 3.93,1.59 7.26,4.22 9.97,7.91 2.71,3.7 4.07,8.32 4.07,13.85 0,8.44 -2.56,14.98 -7.68,19.59 -5.12,4.62 -11.96,6.93 -20.54,6.93z"/>
   <path class="fil0" d="M472.37 656.25l-14.48 41.47 28.55 0 -14.06 -41.47zm24.51 72.31l-6.35 -18.89 -36.87 0 -6.5 18.89 -15.09 0 34.24 -93.55 11.42 0 34.25 93.55 -15.09 0z"/>
   <path class="fil0" d="M583.49 729.22c-9.62,0 -17.61,-3 -23.95,-8.99 -6.34,-5.99 -9.51,-13.75 -9.51,-23.29l0 -61.93 14.17 0 0 61.28c0,6.21 1.73,11.13 5.18,14.76 3.45,3.63 8.15,5.44 14.11,5.44 5.86,0 10.56,-1.81 14.1,-5.44 3.54,-3.63 5.31,-8.55 5.31,-14.76l0 -61.28 14.17 0 0 61.93c0,9.54 -3.17,17.3 -9.51,23.29 -6.35,5.99 -14.37,8.99 -24.08,8.99z"/>
   <polygon class="fil0" points="742.51,728.56 730.26,728.54 711.15,662.97 692.19,728.54 679.93,728.56 655.52,635.01 670.44,635.02 686.7,701.99 705.51,635.01 716.93,635.01 735.75,701.99 752,635.02 766.92,635.01 "/>
   <polygon class="fil0" points="806.81,728.56 806.81,635.01 866.51,635.01 866.51,647.73 820.98,647.73 820.98,675.03 859.82,675.03 859.82,687.62 820.98,687.62 820.98,715.83 866.51,715.83 866.51,728.56 "/>
   <path class="fil0" d="M959.41 654.05c-3.85,-4.21 -9.14,-6.31 -15.88,-6.31l-17.19 0 0 68.1 17.19 0c6.73,0 11.61,-1.66 14.63,-4.99 3.02,-3.33 4.81,-7.1 5.38,-11.3 0.57,-4.21 0.85,-10.34 0.85,-18.4 0,-7.8 -0.28,-13.66 -0.85,-17.55 -0.57,-3.9 -1.95,-7.08 -4.13,-9.53zm9.71 65.71c-2.89,2.89 -6.41,5.08 -10.56,6.57 -4.16,1.49 -8.68,2.23 -13.58,2.23l-32.8 0 0 -93.55 32.8 0c10.24,0 17.93,2.59 23.09,7.75 5.16,5.17 8.2,10.42 9.12,15.76 0.92,5.35 1.38,12.88 1.38,22.6l0 5.12c0,7.97 -0.55,14.52 -1.64,19.64 -1.09,5.12 -3.7,9.74 -7.8,13.86z"/>
   <polygon class="fil0" points="1025.8,728.56 1025.8,635.01 1085.5,635.01 1085.5,647.73 1039.96,647.73 1039.96,675.03 1078.8,675.03 1078.8,687.62 1039.96,687.62 1039.96,715.83 1085.5,715.83 1085.5,728.56 "/>
   <polygon class="fil1" points="427.15,815.69 435.61,815.69 435.61,759.84 427.15,759.84 "/>
   <polygon class="fil1" points="499.05,815.69 473.28,776.37 473.28,815.69 464.82,815.69 464.82,759.84 472.57,759.85 498.35,799.04 498.35,759.84 506.81,759.84 506.81,815.69 "/>
   <polygon class="fil1" points="576.76,815.69 576.76,778.38 563.92,805.51 557.69,805.49 544.49,778.28 544.49,815.69 536.02,815.69 536.02,759.84 544.49,759.84 560.78,794.55 576.76,759.84 585.22,759.84 585.22,815.69 "/>
   <path class="fil1" d="M640.68 770.42c-0.99,-1.1 -2.21,-1.94 -3.64,-2.55 -1.43,-0.6 -2.99,-0.9 -4.66,-0.9 -1.62,0 -3.17,0.31 -4.66,0.94 -1.49,0.63 -2.81,1.57 -3.96,2.82 -1.15,1.25 -1.93,2.99 -2.35,5.21 -0.42,2.22 -0.62,6.15 -0.62,11.79 0,5.85 0.19,9.8 0.59,11.87 0.39,2.06 1.19,3.76 2.39,5.09 1.2,1.33 2.52,2.3 3.96,2.9 1.43,0.6 2.99,0.9 4.66,0.9 1.62,0 3.17,-0.31 4.66,-0.94 1.49,-0.63 2.81,-1.57 3.96,-2.82 1.15,-1.25 1.93,-2.99 2.35,-5.21 0.42,-2.22 0.63,-6.15 0.63,-11.79 0,-5.85 -0.2,-9.8 -0.59,-11.87 -0.39,-2.06 -1.29,-3.88 -2.7,-5.45zm6.42 39.72c-3.97,3.97 -8.88,5.95 -14.73,5.95 -5.8,0 -10.32,-1.62 -13.55,-4.85 -3.24,-3.24 -5.13,-6.32 -5.68,-9.24 -0.55,-2.93 -0.82,-7.68 -0.82,-14.26 0,-6.53 0.28,-11.27 0.82,-14.22 0.55,-2.95 2.44,-6.04 5.68,-9.28 3.23,-3.24 7.75,-4.86 13.55,-4.86 2.98,0 5.68,0.5 8.11,1.49 2.43,0.99 4.75,2.6 6.97,4.82 2.22,2.22 3.61,4.82 4.15,7.8 0.55,2.98 0.83,7.73 0.83,14.26 0,6.74 -0.25,11.51 -0.75,14.33 -0.49,2.82 -2.02,5.51 -4.58,8.07z"/>
   <path class="fil1" d="M701.38 790.94l-13.32 0 0 17.16 13.32 0c2.87,0 5.12,-0.79 6.73,-2.37 1.62,-1.58 2.43,-3.66 2.43,-6.24 0,-2.58 -0.8,-4.65 -2.39,-6.2 -1.59,-1.56 -3.85,-2.34 -6.78,-2.34zm-0.78 -23.5l-12.53 0 0 15.9 12.53 0c2.77,0 4.97,-0.69 6.62,-2.06 1.64,-1.38 2.47,-3.34 2.47,-5.89 0,-2.54 -0.82,-4.5 -2.47,-5.88 -1.64,-1.38 -3.85,-2.06 -6.62,-2.06zm1.57 48.25l-22.56 0 0 -55.85 21.7 0c5.17,0 9.27,1.36 12.3,4.06 3.03,2.71 4.54,6.43 4.54,11.17 0,2.82 -0.74,5.27 -2.23,7.38 -1.49,2.11 -3.25,3.58 -5.29,4.41 2.35,0.94 4.33,2.52 5.95,4.73 1.62,2.21 2.43,4.96 2.43,8.27 0,5.04 -1.53,8.94 -4.58,11.7 -3.06,2.76 -7.14,4.14 -12.26,4.14z"/>
   <polygon class="fil1" points="746.19,815.69 754.65,815.69 754.65,759.84 746.19,759.84 "/>
   <polygon class="fil1" points="783.86,815.69 783.86,759.84 792.32,759.84 792.32,808.1 819.19,808.1 819.19,815.69 "/>
   <polygon class="fil1" points="843.47,815.69 851.93,815.69 851.93,759.84 843.47,759.84 "/>
   <path class="fil1" d="M898.55 772.53l-8.65 24.76 17.04 0 -8.39 -24.76zm14.64 43.17l-3.8 -11.28 -22.01 0 -3.88 11.28 -9.01 0 20.44 -55.85 6.81 0 20.44 55.85 -9.01 0z"/>
   <path class="fil1" d="M965.75 767.44l-12.53 0 0 17.55 12.53 0c2.82,0 5.1,-0.77 6.85,-2.32 1.75,-1.55 2.62,-3.68 2.62,-6.42 0,-2.72 -0.86,-4.88 -2.58,-6.45 -1.72,-1.57 -4.02,-2.36 -6.89,-2.36zm9.78 48.26l-11.71 -23.59 -10.6 0.01 0 23.58 -8.46 0 0 -55.85 21.62 0c5.23,0 9.41,1.5 12.58,4.5 3.16,3 4.74,6.93 4.74,11.79 0,3.81 -1.03,7.01 -3.09,9.59 -2.06,2.59 -4.74,4.32 -8.03,5.21l12.85 24.75 -9.88 0z"/>
   <polygon class="fil1" points="1010.71,815.69 1019.17,815.69 1019.17,759.84 1010.71,759.84 "/>
   <path class="fil1" d="M1065.79 772.53l-8.65 24.76 17.04 0 -8.4 -24.76zm14.64 43.17l-3.8 -11.28 -22.01 0 -3.88 11.28 -9.01 0 20.44 -55.85 6.82 0 20.44 55.85 -9.01 0z"/>
   <polygon class="fil1" points="597.24,608.3 -0,608.3 298.62,309.68 "/>
   <polygon class="fil2" points="1090.78,608.3 493.54,608.3 792.16,309.68 "/>
   <polygon class="fil0" points="749.39,151.03 635.75,37.39 512.94,273.71 "/>
   <polygon class="fil0" points="843.95,245.58 596.85,492.69 559.19,455.03 806.29,207.92 789.05,190.68 460.16,356 430.87,326.7 596.11,0 596.11,0 323.11,272.99 597.24,547.12 871.36,272.99 "/>
  </g>
 </g>
</svg>
