<?xml version="1.0" encoding="UTF-8"?>
<!DOCTYPE svg PUBLIC "-//W3C//DTD SVG 1.1//EN" "http://www.w3.org/Graphics/SVG/1.1/DTD/svg11.dtd">
<!-- Creator: CorelDRAW 2019 (64-Bit) -->
<svg xmlns="http://www.w3.org/2000/svg" xml:space="preserve" width="60.6778mm" height="60.6778mm" version="1.1" style="shape-rendering:geometricPrecision; text-rendering:geometricPrecision; image-rendering:optimizeQuality; fill-rule:evenodd; clip-rule:evenodd"
viewBox="0 0 771.02 771.02"
 xmlns:xlink="http://www.w3.org/1999/xlink"
 xmlns:xodm="http://www.corel.com/coreldraw/odm/2003">
 <defs>
  <style type="text/css">
   <![CDATA[
    .fil0 {fill:white}
    .fil3 {fill:#96989B;fill-rule:nonzero}
    .fil2 {fill:#717170;fill-rule:nonzero}
    .fil1 {fill:#72B052;fill-rule:nonzero}
   ]]>
  </style>
 </defs>
 <g id="Layer_x0020_1">
  <metadata id="CorelCorpID_0Corel-Layer"/>
  <rect class="fil0" width="771.02" height="771.02"/>
  <g id="_3227617098960">
   <polygon class="fil1" points="102.74,534 96.72,534 79.94,482.87 87.94,482.88 99.71,520.12 111.51,482.88 119.67,482.87 "/>
   <polygon class="fil1" points="141.04,534 141.04,482.87 173.67,482.87 173.67,489.83 148.78,489.83 148.78,504.74 170.01,504.74 170.01,511.63 148.78,511.63 148.78,527.05 173.67,527.05 173.67,534 "/>
   <path class="fil1" d="M217.85 489.83l-11.48 0 0 16.07 11.48 0c2.58,0 4.67,-0.71 6.27,-2.13 1.6,-1.42 2.4,-3.37 2.4,-5.87 0,-2.5 -0.79,-4.47 -2.37,-5.91 -1.58,-1.44 -3.68,-2.16 -6.31,-2.16zm8.95 44.18l-10.73 -21.6 -9.7 0.01 0 21.59 -7.74 0 0 -51.13 19.79 0c4.78,0 8.62,1.37 11.51,4.12 2.89,2.75 4.34,6.35 4.34,10.79 0,3.49 -0.94,6.42 -2.83,8.79 -1.89,2.37 -4.34,3.96 -7.35,4.77l11.76 22.66 -9.05 0.01z"/>
   <path class="fil1" d="M279.88 511.34l-12.19 0 0 15.7 12.19 0c2.63,0 4.68,-0.72 6.17,-2.17 1.48,-1.45 2.22,-3.35 2.22,-5.72 0,-2.36 -0.73,-4.26 -2.19,-5.68 -1.46,-1.42 -3.53,-2.14 -6.2,-2.14zm-0.72 -21.52l-11.47 0 0 14.56 11.47 0c2.53,0 4.55,-0.63 6.06,-1.89 1.51,-1.26 2.26,-3.06 2.26,-5.39 0,-2.33 -0.75,-4.13 -2.26,-5.39 -1.51,-1.26 -3.53,-1.89 -6.06,-1.89zm1.43 44.18l-20.65 0 0 -51.13 19.86 0c4.73,0 8.49,1.24 11.26,3.72 2.77,2.48 4.16,5.89 4.16,10.23 0,2.57 -0.68,4.83 -2.04,6.76 -1.36,1.93 -2.98,3.28 -4.84,4.04 2.15,0.87 3.97,2.31 5.45,4.33 1.48,2.02 2.22,4.55 2.22,7.57 0,4.62 -1.4,8.19 -4.2,10.71 -2.8,2.52 -6.54,3.79 -11.22,3.79z"/>
   <path class="fil1" d="M337.76 494.48l-7.92 22.67 15.6 0 -7.69 -22.67zm13.4 39.52l-3.47 -10.33 -20.15 0 -3.55 10.33 -8.25 0 18.72 -51.13 6.24 0 18.72 51.13 -8.25 0z"/>
   <path class="fil1" d="M398.5 534.36c-5.26,0 -9.62,-1.64 -13.09,-4.91 -3.47,-3.27 -5.2,-7.52 -5.2,-12.73l0 -33.85 7.74 0 0 33.49c0,3.39 0.95,6.09 2.83,8.07 1.89,1.98 4.46,2.98 7.71,2.98 3.2,0 5.77,-0.99 7.71,-2.98 1.94,-1.98 2.9,-4.67 2.9,-8.07l0 -33.49 7.75 0 0 33.85c0,5.21 -1.73,9.45 -5.2,12.73 -3.47,3.28 -7.85,4.91 -13.16,4.91z"/>
   <polygon class="fil1" points="485.41,534 478.71,533.99 468.27,498.15 457.91,533.99 451.21,534 437.87,482.87 446.02,482.88 454.91,519.48 465.19,482.87 471.43,482.87 481.71,519.48 490.6,482.88 498.75,482.87 "/>
   <polygon class="fil1" points="520.55,534 520.55,482.87 553.18,482.87 553.18,489.83 528.3,489.83 528.3,504.74 549.53,504.74 549.53,511.63 528.3,511.63 528.3,527.05 553.18,527.05 553.18,534 "/>
   <path class="fil1" d="M603.96 493.28c-2.1,-2.3 -5,-3.45 -8.68,-3.45l-9.4 0 0 37.22 9.4 0c3.68,0 6.35,-0.91 8,-2.73 1.65,-1.82 2.63,-3.88 2.94,-6.18 0.31,-2.3 0.47,-5.65 0.47,-10.06 0,-4.26 -0.16,-7.46 -0.47,-9.59 -0.31,-2.13 -1.06,-3.87 -2.26,-5.21zm5.31 35.92c-1.58,1.58 -3.5,2.78 -5.77,3.59 -2.27,0.81 -4.75,1.22 -7.42,1.22l-17.93 0 0 -51.13 17.93 0c5.59,0 9.8,1.41 12.62,4.24 2.82,2.82 4.48,5.7 4.98,8.62 0.5,2.92 0.75,7.04 0.75,12.35l0 2.8c0,4.36 -0.3,7.94 -0.9,10.74 -0.6,2.8 -2.02,5.32 -4.27,7.58z"/>
   <polygon class="fil1" points="640.25,534 640.25,482.87 672.88,482.87 672.88,489.83 647.99,489.83 647.99,504.74 669.22,504.74 669.22,511.63 647.99,511.63 647.99,527.05 672.88,527.05 672.88,534 "/>
   <polygon class="fil2" points="313.04,581.63 317.67,581.63 317.67,551.1 313.04,551.1 "/>
   <polygon class="fil2" points="352.35,581.63 338.26,560.14 338.26,581.63 333.64,581.63 333.64,551.1 337.87,551.1 351.96,572.53 351.96,551.1 356.58,551.1 356.58,581.63 "/>
   <polygon class="fil2" points="394.82,581.63 394.82,561.24 387.8,576.07 384.4,576.05 377.18,561.18 377.18,581.63 372.55,581.63 372.55,551.1 377.18,551.1 386.08,570.07 394.82,551.1 399.44,551.1 399.44,581.63 "/>
   <path class="fil2" d="M429.75 556.88c-0.54,-0.6 -1.21,-1.06 -1.99,-1.39 -0.79,-0.33 -1.64,-0.49 -2.55,-0.49 -0.89,0 -1.73,0.17 -2.55,0.51 -0.81,0.34 -1.54,0.86 -2.16,1.54 -0.63,0.69 -1.06,1.63 -1.28,2.85 -0.23,1.21 -0.34,3.36 -0.34,6.44 0,3.2 0.11,5.36 0.32,6.49 0.21,1.13 0.65,2.05 1.3,2.78 0.66,0.73 1.38,1.26 2.16,1.58 0.78,0.33 1.63,0.49 2.55,0.49 0.88,0 1.73,-0.17 2.55,-0.51 0.81,-0.34 1.53,-0.86 2.16,-1.54 0.63,-0.68 1.05,-1.63 1.28,-2.85 0.23,-1.21 0.34,-3.36 0.34,-6.44 0,-3.2 -0.11,-5.36 -0.32,-6.49 -0.21,-1.13 -0.71,-2.12 -1.48,-2.98zm3.51 21.71c-2.17,2.17 -4.85,3.25 -8.05,3.25 -3.17,0 -5.64,-0.88 -7.41,-2.65 -1.77,-1.77 -2.8,-3.45 -3.11,-5.05 -0.3,-1.6 -0.45,-4.2 -0.45,-7.79 0,-3.57 0.15,-6.16 0.45,-7.77 0.3,-1.61 1.34,-3.3 3.11,-5.07 1.77,-1.77 4.24,-2.65 7.41,-2.65 1.63,0 3.1,0.27 4.43,0.81 1.33,0.54 2.6,1.42 3.81,2.63 1.21,1.21 1.97,2.63 2.27,4.26 0.3,1.63 0.45,4.22 0.45,7.79 0,3.68 -0.14,6.29 -0.41,7.83 -0.27,1.54 -1.11,3.01 -2.5,4.41z"/>
   <path class="fil2" d="M462.93 568.1l-7.28 0 0 9.38 7.28 0c1.57,0 2.8,-0.43 3.68,-1.3 0.89,-0.86 1.33,-2 1.33,-3.41 0,-1.41 -0.44,-2.54 -1.3,-3.39 -0.87,-0.85 -2.11,-1.28 -3.7,-1.28zm-0.43 -12.85l-6.85 0 0 8.69 6.85 0c1.51,0 2.72,-0.37 3.62,-1.13 0.9,-0.75 1.35,-1.83 1.35,-3.22 0,-1.39 -0.45,-2.46 -1.35,-3.22 -0.9,-0.75 -2.1,-1.13 -3.62,-1.13zm0.86 26.37l-12.33 0 0 -30.53 11.86 0c2.82,0 5.07,0.74 6.72,2.22 1.65,1.48 2.48,3.51 2.48,6.1 0,1.54 -0.41,2.88 -1.22,4.03 -0.81,1.15 -1.78,1.96 -2.89,2.41 1.28,0.52 2.37,1.38 3.25,2.58 0.88,1.21 1.33,2.71 1.33,4.52 0,2.75 -0.84,4.88 -2.5,6.39 -1.67,1.51 -3.9,2.26 -6.7,2.26z"/>
   <polygon class="fil2" points="487.42,581.63 492.05,581.63 492.05,551.1 487.42,551.1 "/>
   <polygon class="fil2" points="508.01,581.63 508.01,551.1 512.64,551.1 512.64,577.48 527.32,577.48 527.32,581.63 "/>
   <polygon class="fil2" points="540.59,581.63 545.22,581.63 545.22,551.1 540.59,551.1 "/>
   <path class="fil2" d="M570.7 558.03l-4.73 13.53 9.31 0 -4.59 -13.53zm8 23.59l-2.07 -6.17 -12.03 0 -2.12 6.17 -4.92 0 11.17 -30.53 3.72 0 11.17 30.53 -4.92 0z"/>
   <path class="fil2" d="M607.43 555.25l-6.85 0 0 9.59 6.85 0c1.54,0 2.79,-0.42 3.75,-1.27 0.96,-0.85 1.43,-2.01 1.43,-3.51 0,-1.49 -0.47,-2.67 -1.41,-3.53 -0.94,-0.86 -2.2,-1.29 -3.77,-1.29zm5.34 26.38l-6.4 -12.9 -5.79 0.01 0 12.89 -4.62 0 0 -30.53 11.81 0c2.86,0 5.14,0.82 6.87,2.46 1.73,1.64 2.59,3.79 2.59,6.44 0,2.08 -0.56,3.83 -1.69,5.24 -1.13,1.41 -2.59,2.36 -4.39,2.85l7.02 13.53 -5.4 0z"/>
   <polygon class="fil2" points="632,581.63 636.62,581.63 636.62,551.1 632,551.1 "/>
   <path class="fil2" d="M662.1 558.03l-4.72 13.53 9.31 0 -4.59 -13.53zm8 23.59l-2.08 -6.17 -12.03 0 -2.12 6.17 -4.92 0 11.17 -30.53 3.73 0 11.17 30.53 -4.92 0z"/>
   <polygon class="fil2" points="406.01,468.27 79.58,468.27 242.8,305.06 "/>
   <polygon class="fil3" points="675.76,468.27 349.33,468.27 512.55,305.06 "/>
   <polygon class="fil1" points="489.17,218.34 427.06,156.23 359.93,285.4 "/>
   <polygon class="fil1" points="540.86,270.03 405.8,405.08 385.21,384.5 520.27,249.44 510.85,240.02 331.09,330.38 315.08,314.36 405.4,135.8 405.39,135.8 256.18,285.01 406.01,434.83 555.84,285.01 "/>
  </g>
 </g>
</svg>
