<?xml version="1.0" encoding="UTF-8"?>
<!DOCTYPE svg PUBLIC "-//W3C//DTD SVG 1.1//EN" "http://www.w3.org/Graphics/SVG/1.1/DTD/svg11.dtd">
<!-- Creator: CorelDRAW 2019 (64-Bit) -->
<svg xmlns="http://www.w3.org/2000/svg" xml:space="preserve" width="48.7655mm" height="36.4848mm" version="1.1" style="shape-rendering:geometricPrecision; text-rendering:geometricPrecision; image-rendering:optimizeQuality; fill-rule:evenodd; clip-rule:evenodd"
viewBox="0 0 558.03 417.5"
 xmlns:xlink="http://www.w3.org/1999/xlink"
 xmlns:xodm="http://www.corel.com/coreldraw/odm/2003">
 <defs>
  <style type="text/css">
   <![CDATA[
    .fil1 {fill:#717170;fill-rule:nonzero}
    .fil2 {fill:#999999;fill-rule:nonzero}
    .fil0 {fill:#B3B3B3;fill-rule:nonzero}
   ]]>
  </style>
 </defs>
 <g id="Layer_x0020_1">
  <metadata id="CorelCorpID_0Corel-Layer"/>
  <polygon class="fil0" points="21.68,372.72 16.04,372.72 0.33,324.86 7.82,324.87 18.84,359.72 29.88,324.87 37.52,324.86 "/>
  <polygon class="fil0" points="57.52,372.72 57.52,324.86 88.07,324.86 88.07,331.37 64.77,331.37 64.77,345.34 84.64,345.34 84.64,351.78 64.77,351.78 64.77,366.21 88.07,366.21 88.07,372.72 "/>
  <path class="fil0" d="M129.42 331.37l-10.74 0 0 15.04 10.74 0c2.42,0 4.37,-0.66 5.87,-1.99 1.5,-1.33 2.25,-3.16 2.25,-5.49 0,-2.34 -0.74,-4.18 -2.21,-5.53 -1.48,-1.35 -3.45,-2.02 -5.91,-2.02zm8.38 41.36l-10.04 -20.22 -9.08 0.01 0 20.2 -7.25 0 0 -47.86 18.53 0c4.47,0 8.07,1.29 10.77,3.86 2.71,2.57 4.06,5.94 4.06,10.1 0,3.27 -0.88,6.01 -2.65,8.22 -1.77,2.22 -4.06,3.7 -6.88,4.46l11.01 21.21 -8.47 0.01z"/>
  <path class="fil0" d="M187.48 351.51l-11.41 0 0 14.7 11.41 0c2.46,0 4.39,-0.68 5.77,-2.03 1.39,-1.35 2.08,-3.14 2.08,-5.35 0,-2.21 -0.68,-3.99 -2.05,-5.32 -1.37,-1.33 -3.3,-2 -5.81,-2zm-0.67 -20.14l-10.74 0 0 13.63 10.74 0c2.37,0 4.26,-0.59 5.67,-1.77 1.41,-1.18 2.11,-2.86 2.11,-5.04 0,-2.18 -0.7,-3.86 -2.11,-5.04 -1.41,-1.18 -3.3,-1.77 -5.67,-1.77zm1.34 41.35l-19.33 0 0 -47.86 18.59 0c4.43,0 7.94,1.16 10.54,3.48 2.6,2.32 3.89,5.51 3.89,9.57 0,2.41 -0.64,4.52 -1.91,6.32 -1.28,1.81 -2.79,3.07 -4.53,3.78 2.01,0.81 3.71,2.16 5.1,4.05 1.39,1.89 2.08,4.25 2.08,7.09 0,4.32 -1.31,7.66 -3.93,10.02 -2.62,2.36 -6.12,3.54 -10.51,3.54z"/>
  <path class="fil0" d="M241.66 335.73l-7.41 21.22 14.6 0 -7.2 -21.22zm12.54 36.99l-3.25 -9.67 -18.86 0 -3.32 9.67 -7.72 0 17.52 -47.86 5.84 0 17.52 47.86 -7.72 0z"/>
  <path class="fil0" d="M298.51 373.06c-4.92,0 -9.01,-1.53 -12.25,-4.6 -3.25,-3.07 -4.87,-7.04 -4.87,-11.91l0 -31.68 7.25 0 0 31.35c0,3.18 0.88,5.7 2.65,7.55 1.77,1.86 4.17,2.79 7.22,2.79 3,0 5.4,-0.93 7.21,-2.79 1.81,-1.85 2.72,-4.37 2.72,-7.55l0 -31.35 7.25 0 0 31.68c0,4.88 -1.62,8.85 -4.87,11.91 -3.25,3.07 -7.35,4.6 -12.32,4.6z"/>
  <polygon class="fil0" points="379.86,372.72 373.59,372.71 363.82,339.17 354.12,372.71 347.85,372.72 335.36,324.86 342.99,324.87 351.31,359.13 360.93,324.86 366.77,324.86 376.4,359.13 384.72,324.87 392.35,324.86 "/>
  <polygon class="fil0" points="412.75,372.72 412.75,324.86 443.3,324.86 443.3,331.37 420,331.37 420,345.34 439.87,345.34 439.87,351.78 420,351.78 420,366.21 443.3,366.21 443.3,372.72 "/>
  <path class="fil0" d="M490.82 334.6c-1.97,-2.15 -4.68,-3.23 -8.12,-3.23l-8.79 0 0 34.84 8.79 0c3.45,0 5.94,-0.85 7.48,-2.56 1.54,-1.7 2.46,-3.63 2.75,-5.78 0.29,-2.15 0.44,-5.29 0.44,-9.42 0,-3.99 -0.15,-6.99 -0.44,-8.98 -0.29,-1.99 -1,-3.62 -2.11,-4.88zm4.97 33.62c-1.48,1.48 -3.28,2.6 -5.4,3.36 -2.13,0.76 -4.44,1.14 -6.95,1.14l-16.78 0 0 -47.86 16.78 0c5.24,0 9.17,1.32 11.81,3.97 2.64,2.64 4.2,5.33 4.67,8.07 0.47,2.73 0.7,6.59 0.7,11.56l0 2.62c0,4.08 -0.28,7.43 -0.84,10.05 -0.56,2.62 -1.89,4.98 -3.99,7.09z"/>
  <polygon class="fil0" points="524.79,372.72 524.79,324.86 555.33,324.86 555.33,331.37 532.04,331.37 532.04,345.34 551.9,345.34 551.9,351.78 532.04,351.78 532.04,366.21 555.33,366.21 555.33,372.72 "/>
  <polygon class="fil0" points="218.52,417.3 222.85,417.3 222.85,388.73 218.52,388.73 "/>
  <polygon class="fil0" points="255.31,417.3 242.13,397.18 242.13,417.3 237.8,417.3 237.8,388.73 241.76,388.73 254.95,408.78 254.95,388.73 259.28,388.73 259.28,417.3 "/>
  <polygon class="fil0" points="295.06,417.3 295.06,398.21 288.49,412.09 285.31,412.08 278.55,398.16 278.55,417.3 274.22,417.3 274.22,388.73 278.55,388.73 286.89,406.48 295.06,388.73 299.39,388.73 299.39,417.3 "/>
  <path class="fil0" d="M327.76 394.14c-0.51,-0.56 -1.13,-0.99 -1.86,-1.3 -0.73,-0.31 -1.53,-0.46 -2.38,-0.46 -0.83,0 -1.62,0.16 -2.38,0.48 -0.76,0.32 -1.44,0.8 -2.02,1.44 -0.59,0.64 -0.99,1.53 -1.2,2.67 -0.22,1.14 -0.32,3.15 -0.32,6.03 0,2.99 0.1,5.02 0.3,6.07 0.2,1.06 0.61,1.92 1.22,2.6 0.61,0.68 1.29,1.18 2.02,1.48 0.73,0.31 1.53,0.46 2.38,0.46 0.83,0 1.62,-0.16 2.38,-0.48 0.76,-0.32 1.44,-0.8 2.02,-1.44 0.59,-0.64 0.99,-1.53 1.2,-2.67 0.21,-1.14 0.32,-3.14 0.32,-6.03 0,-2.99 -0.1,-5.02 -0.3,-6.07 -0.2,-1.06 -0.66,-1.98 -1.38,-2.79zm3.29 20.32c-2.03,2.03 -4.54,3.04 -7.53,3.04 -2.97,0 -5.28,-0.83 -6.93,-2.48 -1.66,-1.66 -2.63,-3.23 -2.91,-4.73 -0.28,-1.5 -0.42,-3.93 -0.42,-7.29 0,-3.34 0.14,-5.77 0.42,-7.27 0.28,-1.51 1.25,-3.09 2.91,-4.75 1.65,-1.66 3.97,-2.48 6.93,-2.48 1.52,0 2.91,0.25 4.15,0.76 1.24,0.51 2.43,1.33 3.57,2.46 1.14,1.14 1.84,2.46 2.12,3.99 0.28,1.52 0.42,3.95 0.42,7.29 0,3.45 -0.13,5.89 -0.38,7.33 -0.25,1.44 -1.04,2.82 -2.34,4.13z"/>
  <path class="fil0" d="M358.82 404.64l-6.81 0 0 8.78 6.81 0c1.47,0 2.62,-0.4 3.45,-1.21 0.83,-0.81 1.24,-1.87 1.24,-3.19 0,-1.32 -0.41,-2.38 -1.22,-3.17 -0.82,-0.8 -1.97,-1.19 -3.47,-1.19zm-0.4 -12.02l-6.41 0 0 8.13 6.41 0c1.42,0 2.54,-0.35 3.39,-1.06 0.84,-0.7 1.26,-1.71 1.26,-3.01 0,-1.3 -0.42,-2.3 -1.26,-3.01 -0.84,-0.7 -1.97,-1.06 -3.39,-1.06zm0.8 24.69l-11.54 0 0 -28.57 11.1 0c2.64,0 4.74,0.69 6.29,2.08 1.55,1.39 2.32,3.29 2.32,5.71 0,1.44 -0.38,2.7 -1.14,3.78 -0.76,1.08 -1.66,1.83 -2.71,2.26 1.2,0.48 2.22,1.29 3.05,2.42 0.83,1.13 1.24,2.54 1.24,4.23 0,2.58 -0.78,4.57 -2.34,5.98 -1.56,1.41 -3.65,2.12 -6.27,2.12z"/>
  <polygon class="fil0" points="381.74,417.3 386.07,417.3 386.07,388.73 381.74,388.73 "/>
  <polygon class="fil0" points="401.02,417.3 401.02,388.73 405.34,388.73 405.34,413.41 419.09,413.41 419.09,417.3 "/>
  <polygon class="fil0" points="431.51,417.3 435.84,417.3 435.84,388.73 431.51,388.73 "/>
  <path class="fil0" d="M459.69 395.22l-4.42 12.67 8.72 0 -4.29 -12.67zm7.49 22.08l-1.94 -5.77 -11.26 0 -1.98 5.77 -4.61 0 10.46 -28.57 3.48 0 10.46 28.57 -4.61 0z"/>
  <path class="fil0" d="M494.07 392.61l-6.41 0 0 8.98 6.41 0c1.44,0 2.61,-0.4 3.51,-1.19 0.89,-0.79 1.34,-1.88 1.34,-3.28 0,-1.39 -0.44,-2.49 -1.32,-3.3 -0.88,-0.81 -2.06,-1.21 -3.53,-1.21zm5 24.69l-5.99 -12.07 -5.42 0.01 0 12.06 -4.33 0 0 -28.57 11.06 0c2.67,0 4.82,0.77 6.43,2.3 1.62,1.54 2.42,3.55 2.42,6.03 0,1.95 -0.53,3.59 -1.58,4.91 -1.06,1.32 -2.43,2.21 -4.11,2.67l6.57 12.66 -5.06 0z"/>
  <polygon class="fil0" points="517.07,417.3 521.4,417.3 521.4,388.73 517.07,388.73 "/>
  <path class="fil0" d="M545.25 395.22l-4.42 12.67 8.72 0 -4.3 -12.67zm7.49 22.08l-1.94 -5.77 -11.26 0 -1.98 5.77 -4.61 0 10.46 -28.57 3.49 0 10.46 28.57 -4.61 0z"/>
  <polygon class="fil1" points="305.54,311.2 -0,311.2 152.77,158.43 "/>
  <polygon class="fil0" points="558.03,311.2 252.49,311.2 405.26,158.43 "/>
  <path class="fil2" d="M383.38 77.26l-58.14 -58.14 -62.83 120.9 120.97 -62.76zm48.37 48.37l-126.42 126.42 -19.27 -19.27 126.42 -126.41 -8.82 -8.82 -168.25 84.58 -14.99 -14.99 84.54 -167.14 -0 0 -139.66 139.66 140.24 140.24 140.24 -140.24 -14.02 -14.02z"/>
 </g>
</svg>
